%TF.GenerationSoftware,KiCad,Pcbnew,(6.0.8-1)-1*%
%TF.CreationDate,2023-12-09T20:57:06-06:00*%
%TF.ProjectId,RIO to STEMMA Dual,52494f20-746f-4205-9354-454d4d412044,rev?*%
%TF.SameCoordinates,Original*%
%TF.FileFunction,Copper,L1,Top*%
%TF.FilePolarity,Positive*%
%FSLAX46Y46*%
G04 Gerber Fmt 4.6, Leading zero omitted, Abs format (unit mm)*
G04 Created by KiCad (PCBNEW (6.0.8-1)-1) date 2023-12-09 20:57:06*
%MOMM*%
%LPD*%
G01*
G04 APERTURE LIST*
G04 Aperture macros list*
%AMRoundRect*
0 Rectangle with rounded corners*
0 $1 Rounding radius*
0 $2 $3 $4 $5 $6 $7 $8 $9 X,Y pos of 4 corners*
0 Add a 4 corners polygon primitive as box body*
4,1,4,$2,$3,$4,$5,$6,$7,$8,$9,$2,$3,0*
0 Add four circle primitives for the rounded corners*
1,1,$1+$1,$2,$3*
1,1,$1+$1,$4,$5*
1,1,$1+$1,$6,$7*
1,1,$1+$1,$8,$9*
0 Add four rect primitives between the rounded corners*
20,1,$1+$1,$2,$3,$4,$5,0*
20,1,$1+$1,$4,$5,$6,$7,0*
20,1,$1+$1,$6,$7,$8,$9,0*
20,1,$1+$1,$8,$9,$2,$3,0*%
G04 Aperture macros list end*
%TA.AperFunction,ComponentPad*%
%ADD10C,3.500000*%
%TD*%
%TA.AperFunction,SMDPad,CuDef*%
%ADD11RoundRect,0.150000X-0.150000X-0.625000X0.150000X-0.625000X0.150000X0.625000X-0.150000X0.625000X0*%
%TD*%
%TA.AperFunction,SMDPad,CuDef*%
%ADD12RoundRect,0.250000X-0.350000X-0.650000X0.350000X-0.650000X0.350000X0.650000X-0.350000X0.650000X0*%
%TD*%
%TA.AperFunction,SMDPad,CuDef*%
%ADD13RoundRect,0.150000X0.150000X0.625000X-0.150000X0.625000X-0.150000X-0.625000X0.150000X-0.625000X0*%
%TD*%
%TA.AperFunction,SMDPad,CuDef*%
%ADD14RoundRect,0.250000X0.350000X0.650000X-0.350000X0.650000X-0.350000X-0.650000X0.350000X-0.650000X0*%
%TD*%
%TA.AperFunction,ComponentPad*%
%ADD15C,1.524000*%
%TD*%
%TA.AperFunction,ViaPad*%
%ADD16C,0.800000*%
%TD*%
%TA.AperFunction,Conductor*%
%ADD17C,0.350000*%
%TD*%
G04 APERTURE END LIST*
D10*
%TO.P,H2,1*%
%TO.N,N/C*%
X165481500Y-55109990D03*
%TD*%
D11*
%TO.P,X2,1,GND*%
%TO.N,GND*%
X87146000Y-60636400D03*
%TO.P,X2,2,V+*%
%TO.N,+3V3*%
X88146000Y-60636400D03*
%TO.P,X2,3,SDA*%
%TO.N,/SDA*%
X89146000Y-60636400D03*
%TO.P,X2,4,SCL*%
%TO.N,/SCL*%
X90146000Y-60636400D03*
D12*
%TO.P,X2,MP,MP*%
%TO.N,GND*%
X91446000Y-64511400D03*
X85846000Y-64511400D03*
%TD*%
D13*
%TO.P,X3,1,GND*%
%TO.N,GND*%
X90146000Y-56254400D03*
%TO.P,X3,2,V+*%
%TO.N,+3V3*%
X89146000Y-56254400D03*
%TO.P,X3,3,SDA*%
%TO.N,/SDA*%
X88146000Y-56254400D03*
%TO.P,X3,4,SCL*%
%TO.N,/SCL*%
X87146000Y-56254400D03*
D14*
%TO.P,X3,MP,MP*%
%TO.N,GND*%
X91446000Y-52379400D03*
X85846000Y-52379400D03*
%TD*%
D10*
%TO.P,H1,1*%
%TO.N,N/C*%
X115851500Y-55109990D03*
%TD*%
D15*
%TO.P,X1,1,GND*%
%TO.N,GND*%
X73456800Y-56083200D03*
%TO.P,X1,2,3V3*%
%TO.N,+3V3*%
X75996800Y-56083200D03*
%TO.P,X1,3,SCL*%
%TO.N,/SCL*%
X78536800Y-56083200D03*
%TO.P,X1,4,SDA*%
%TO.N,/SDA*%
X81076800Y-56083200D03*
%TO.P,X1,5,GND*%
%TO.N,GND*%
X73456800Y-58623200D03*
%TO.P,X1,6,GND*%
X73456800Y-53543200D03*
%TO.P,X1,7,3V3*%
%TO.N,+3V3*%
X75996800Y-58623200D03*
%TO.P,X1,8,3V3*%
X75996800Y-53543200D03*
%TO.P,X1,9,SCL*%
%TO.N,/SCL*%
X78536800Y-58623200D03*
%TO.P,X1,10,SCL*%
X78536800Y-53543200D03*
%TO.P,X1,11,SDA*%
%TO.N,/SDA*%
X81076800Y-58623200D03*
%TO.P,X1,12,SDA*%
X81076800Y-53543200D03*
%TD*%
D16*
%TO.N,+3V3*%
X87985600Y-62026800D03*
X89458800Y-54610000D03*
%TO.N,/SCL*%
X90678000Y-59131200D03*
X86715600Y-58267600D03*
%TD*%
D17*
%TO.N,+3V3*%
X88146000Y-61866400D02*
X87985600Y-62026800D01*
X89146000Y-54922800D02*
X89458800Y-54610000D01*
X89146000Y-56254400D02*
X89146000Y-54922800D01*
X88146000Y-60636400D02*
X88146000Y-61866400D01*
%TO.N,/SCL*%
X90146000Y-60636400D02*
X90146000Y-59663200D01*
X87146000Y-56254400D02*
X87146000Y-57837200D01*
X87146000Y-57837200D02*
X86715600Y-58267600D01*
X90146000Y-59663200D02*
X90678000Y-59131200D01*
%TO.N,/SDA*%
X89154000Y-60628400D02*
X89146000Y-60636400D01*
X87833200Y-54864000D02*
X88146000Y-55176800D01*
X81076800Y-56083200D02*
X84836000Y-56083200D01*
X88146000Y-55176800D02*
X88146000Y-56254400D01*
X88146000Y-56254400D02*
X88146000Y-57920000D01*
X84836000Y-56083200D02*
X86055200Y-54864000D01*
X89154000Y-58928000D02*
X89154000Y-60628400D01*
X81076800Y-53543200D02*
X81076800Y-58623200D01*
X88146000Y-57920000D02*
X89154000Y-58928000D01*
X86055200Y-54864000D02*
X87833200Y-54864000D01*
%TD*%
%TA.AperFunction,Conductor*%
%TO.N,GND*%
G36*
X85165460Y-50830502D02*
G01*
X85211953Y-50884158D01*
X85222057Y-50954432D01*
X85192563Y-51019012D01*
X85163642Y-51043644D01*
X85028193Y-51127463D01*
X85016792Y-51136499D01*
X84902261Y-51251229D01*
X84893249Y-51262640D01*
X84808184Y-51400643D01*
X84802037Y-51413824D01*
X84750862Y-51568110D01*
X84747995Y-51581486D01*
X84738328Y-51675838D01*
X84738000Y-51682255D01*
X84738000Y-52107285D01*
X84742475Y-52122524D01*
X84743865Y-52123729D01*
X84751548Y-52125400D01*
X86935884Y-52125400D01*
X86951123Y-52120925D01*
X86952328Y-52119535D01*
X86953999Y-52111852D01*
X86953999Y-51682305D01*
X86953662Y-51675786D01*
X86943743Y-51580194D01*
X86940851Y-51566800D01*
X86889412Y-51412616D01*
X86883239Y-51399438D01*
X86797937Y-51261593D01*
X86788901Y-51250192D01*
X86674171Y-51135661D01*
X86662760Y-51126649D01*
X86528288Y-51043760D01*
X86480795Y-50990988D01*
X86469371Y-50920917D01*
X86497645Y-50855793D01*
X86556639Y-50816293D01*
X86594404Y-50810500D01*
X90697339Y-50810500D01*
X90765460Y-50830502D01*
X90811953Y-50884158D01*
X90822057Y-50954432D01*
X90792563Y-51019012D01*
X90763642Y-51043644D01*
X90628193Y-51127463D01*
X90616792Y-51136499D01*
X90502261Y-51251229D01*
X90493249Y-51262640D01*
X90408184Y-51400643D01*
X90402037Y-51413824D01*
X90350862Y-51568110D01*
X90347995Y-51581486D01*
X90338328Y-51675838D01*
X90338000Y-51682255D01*
X90338000Y-52107285D01*
X90342475Y-52122524D01*
X90343865Y-52123729D01*
X90351548Y-52125400D01*
X92535884Y-52125400D01*
X92551123Y-52120925D01*
X92552328Y-52119535D01*
X92553999Y-52111852D01*
X92553999Y-51682305D01*
X92553662Y-51675786D01*
X92543743Y-51580194D01*
X92540851Y-51566800D01*
X92489412Y-51412616D01*
X92483239Y-51399438D01*
X92397937Y-51261593D01*
X92388901Y-51250192D01*
X92274171Y-51135661D01*
X92262760Y-51126649D01*
X92128288Y-51043760D01*
X92080795Y-50990988D01*
X92069371Y-50920917D01*
X92097645Y-50855793D01*
X92156639Y-50816293D01*
X92194404Y-50810500D01*
X167847000Y-50810500D01*
X167915121Y-50830502D01*
X167961614Y-50884158D01*
X167973000Y-50936500D01*
X167973000Y-54779616D01*
X167952998Y-54847737D01*
X167899342Y-54894230D01*
X167829068Y-54904334D01*
X167764488Y-54874840D01*
X167726104Y-54815114D01*
X167723421Y-54804198D01*
X167722423Y-54799178D01*
X167692752Y-54650014D01*
X167668530Y-54528243D01*
X167668528Y-54528237D01*
X167667724Y-54524193D01*
X167624717Y-54397496D01*
X167573885Y-54247751D01*
X167573884Y-54247750D01*
X167572559Y-54243845D01*
X167441615Y-53978317D01*
X167394369Y-53907608D01*
X167279426Y-53735583D01*
X167279422Y-53735578D01*
X167277133Y-53732152D01*
X167274419Y-53729058D01*
X167274415Y-53729052D01*
X167084636Y-53512652D01*
X167081927Y-53509563D01*
X167050512Y-53482013D01*
X166862438Y-53317075D01*
X166862432Y-53317071D01*
X166859338Y-53314357D01*
X166855912Y-53312068D01*
X166855907Y-53312064D01*
X166616606Y-53152169D01*
X166613173Y-53149875D01*
X166609474Y-53148051D01*
X166609469Y-53148048D01*
X166446695Y-53067777D01*
X166347645Y-53018931D01*
X166337753Y-53015573D01*
X166071210Y-52925094D01*
X166071206Y-52925093D01*
X166067297Y-52923766D01*
X166063253Y-52922962D01*
X166063247Y-52922960D01*
X165780965Y-52866810D01*
X165780959Y-52866809D01*
X165776926Y-52866007D01*
X165772821Y-52865738D01*
X165772814Y-52865737D01*
X165485619Y-52846914D01*
X165481500Y-52846644D01*
X165477381Y-52846914D01*
X165190186Y-52865737D01*
X165190179Y-52865738D01*
X165186074Y-52866007D01*
X165182041Y-52866809D01*
X165182035Y-52866810D01*
X164899753Y-52922960D01*
X164899747Y-52922962D01*
X164895703Y-52923766D01*
X164891794Y-52925093D01*
X164891790Y-52925094D01*
X164625247Y-53015573D01*
X164615355Y-53018931D01*
X164516305Y-53067777D01*
X164353531Y-53148048D01*
X164353526Y-53148051D01*
X164349827Y-53149875D01*
X164346394Y-53152169D01*
X164107093Y-53312064D01*
X164107088Y-53312068D01*
X164103662Y-53314357D01*
X164100568Y-53317071D01*
X164100562Y-53317075D01*
X163912488Y-53482013D01*
X163881073Y-53509563D01*
X163878364Y-53512652D01*
X163688585Y-53729052D01*
X163688581Y-53729058D01*
X163685867Y-53732152D01*
X163683578Y-53735578D01*
X163683574Y-53735583D01*
X163568631Y-53907608D01*
X163521385Y-53978317D01*
X163390441Y-54243845D01*
X163389116Y-54247750D01*
X163389115Y-54247751D01*
X163338284Y-54397496D01*
X163295276Y-54524193D01*
X163294472Y-54528237D01*
X163294470Y-54528243D01*
X163241734Y-54793365D01*
X163237517Y-54814564D01*
X163237248Y-54818669D01*
X163237247Y-54818676D01*
X163219508Y-55089330D01*
X163218154Y-55109990D01*
X163218424Y-55114109D01*
X163237049Y-55398274D01*
X163237517Y-55405416D01*
X163238319Y-55409449D01*
X163238320Y-55409455D01*
X163294470Y-55691737D01*
X163295276Y-55695787D01*
X163296603Y-55699696D01*
X163296604Y-55699700D01*
X163351608Y-55861737D01*
X163390441Y-55976135D01*
X163442681Y-56082068D01*
X163464544Y-56126400D01*
X163521385Y-56241663D01*
X163523679Y-56245096D01*
X163661921Y-56451990D01*
X163685867Y-56487828D01*
X163688581Y-56490922D01*
X163688585Y-56490928D01*
X163816142Y-56636378D01*
X163881073Y-56710417D01*
X163884162Y-56713126D01*
X164100562Y-56902905D01*
X164100568Y-56902909D01*
X164103662Y-56905623D01*
X164107088Y-56907912D01*
X164107093Y-56907916D01*
X164228946Y-56989335D01*
X164349827Y-57070105D01*
X164353526Y-57071929D01*
X164353531Y-57071932D01*
X164471694Y-57130203D01*
X164615355Y-57201049D01*
X164619260Y-57202374D01*
X164619261Y-57202375D01*
X164891790Y-57294886D01*
X164891794Y-57294887D01*
X164895703Y-57296214D01*
X164899747Y-57297018D01*
X164899753Y-57297020D01*
X165182035Y-57353170D01*
X165182041Y-57353171D01*
X165186074Y-57353973D01*
X165190179Y-57354242D01*
X165190186Y-57354243D01*
X165477381Y-57373066D01*
X165481500Y-57373336D01*
X165485619Y-57373066D01*
X165772814Y-57354243D01*
X165772821Y-57354242D01*
X165776926Y-57353973D01*
X165780959Y-57353171D01*
X165780965Y-57353170D01*
X166063247Y-57297020D01*
X166063253Y-57297018D01*
X166067297Y-57296214D01*
X166071206Y-57294887D01*
X166071210Y-57294886D01*
X166343739Y-57202375D01*
X166343740Y-57202374D01*
X166347645Y-57201049D01*
X166491306Y-57130203D01*
X166609469Y-57071932D01*
X166609474Y-57071929D01*
X166613173Y-57070105D01*
X166734054Y-56989335D01*
X166855907Y-56907916D01*
X166855912Y-56907912D01*
X166859338Y-56905623D01*
X166862432Y-56902909D01*
X166862438Y-56902905D01*
X167078838Y-56713126D01*
X167081927Y-56710417D01*
X167146858Y-56636378D01*
X167274415Y-56490928D01*
X167274419Y-56490922D01*
X167277133Y-56487828D01*
X167301080Y-56451990D01*
X167439321Y-56245096D01*
X167441615Y-56241663D01*
X167498457Y-56126400D01*
X167520319Y-56082068D01*
X167572559Y-55976135D01*
X167611392Y-55861737D01*
X167666396Y-55699700D01*
X167666397Y-55699696D01*
X167667724Y-55695787D01*
X167676338Y-55652485D01*
X167723421Y-55415782D01*
X167756329Y-55352873D01*
X167818024Y-55317741D01*
X167888919Y-55321541D01*
X167946505Y-55363067D01*
X167972499Y-55429134D01*
X167973000Y-55440364D01*
X167973000Y-57667500D01*
X167952998Y-57735621D01*
X167899342Y-57782114D01*
X167847000Y-57793500D01*
X95157023Y-57793500D01*
X95156253Y-57793498D01*
X95155437Y-57793493D01*
X95078679Y-57793024D01*
X95056318Y-57799415D01*
X95050247Y-57801150D01*
X95033485Y-57804728D01*
X95004213Y-57808920D01*
X94996045Y-57812634D01*
X94996044Y-57812634D01*
X94980838Y-57819548D01*
X94963314Y-57825996D01*
X94938629Y-57833051D01*
X94931035Y-57837843D01*
X94931032Y-57837844D01*
X94913620Y-57848830D01*
X94898537Y-57856969D01*
X94871618Y-57869208D01*
X94864816Y-57875069D01*
X94852165Y-57885970D01*
X94837161Y-57897073D01*
X94815442Y-57910776D01*
X94809503Y-57917501D01*
X94809499Y-57917504D01*
X94795868Y-57932938D01*
X94783676Y-57944982D01*
X94768073Y-57958427D01*
X94768071Y-57958430D01*
X94761273Y-57964287D01*
X94756393Y-57971816D01*
X94756392Y-57971817D01*
X94747306Y-57985835D01*
X94736015Y-58000709D01*
X94724969Y-58013217D01*
X94719022Y-58019951D01*
X94706458Y-58046711D01*
X94698137Y-58061691D01*
X94686929Y-58078983D01*
X94686927Y-58078988D01*
X94682048Y-58086515D01*
X94679478Y-58095108D01*
X94679476Y-58095113D01*
X94674689Y-58111120D01*
X94668028Y-58128564D01*
X94657119Y-58151800D01*
X94655738Y-58160667D01*
X94655738Y-58160668D01*
X94652570Y-58181015D01*
X94648787Y-58197732D01*
X94642885Y-58217466D01*
X94642884Y-58217472D01*
X94640314Y-58226066D01*
X94640259Y-58235037D01*
X94640259Y-58235038D01*
X94640104Y-58260497D01*
X94640071Y-58261289D01*
X94639900Y-58262386D01*
X94639900Y-58293377D01*
X94639898Y-58294147D01*
X94639424Y-58371721D01*
X94639808Y-58373065D01*
X94639900Y-58374410D01*
X94639900Y-66167500D01*
X94619898Y-66235621D01*
X94566242Y-66282114D01*
X94513900Y-66293500D01*
X84759300Y-66293500D01*
X84691179Y-66273498D01*
X84644686Y-66219842D01*
X84633300Y-66167500D01*
X84633300Y-65650879D01*
X84653302Y-65582758D01*
X84706958Y-65536265D01*
X84777232Y-65526161D01*
X84841812Y-65555655D01*
X84866444Y-65584575D01*
X84894066Y-65629210D01*
X84903099Y-65640608D01*
X85017829Y-65755139D01*
X85029240Y-65764151D01*
X85167243Y-65849216D01*
X85180424Y-65855363D01*
X85334710Y-65906538D01*
X85348086Y-65909405D01*
X85442438Y-65919072D01*
X85448854Y-65919400D01*
X85573885Y-65919400D01*
X85589124Y-65914925D01*
X85590329Y-65913535D01*
X85592000Y-65905852D01*
X85592000Y-65901284D01*
X86100000Y-65901284D01*
X86104475Y-65916523D01*
X86105865Y-65917728D01*
X86113548Y-65919399D01*
X86243095Y-65919399D01*
X86249614Y-65919062D01*
X86345206Y-65909143D01*
X86358600Y-65906251D01*
X86512784Y-65854812D01*
X86525962Y-65848639D01*
X86663807Y-65763337D01*
X86675208Y-65754301D01*
X86789739Y-65639571D01*
X86798751Y-65628160D01*
X86883816Y-65490157D01*
X86889963Y-65476976D01*
X86941138Y-65322690D01*
X86944005Y-65309314D01*
X86953672Y-65214962D01*
X86954000Y-65208546D01*
X86954000Y-65208495D01*
X90338001Y-65208495D01*
X90338338Y-65215014D01*
X90348257Y-65310606D01*
X90351149Y-65324000D01*
X90402588Y-65478184D01*
X90408761Y-65491362D01*
X90494063Y-65629207D01*
X90503099Y-65640608D01*
X90617829Y-65755139D01*
X90629240Y-65764151D01*
X90767243Y-65849216D01*
X90780424Y-65855363D01*
X90934710Y-65906538D01*
X90948086Y-65909405D01*
X91042438Y-65919072D01*
X91048854Y-65919400D01*
X91173885Y-65919400D01*
X91189124Y-65914925D01*
X91190329Y-65913535D01*
X91192000Y-65905852D01*
X91192000Y-65901284D01*
X91700000Y-65901284D01*
X91704475Y-65916523D01*
X91705865Y-65917728D01*
X91713548Y-65919399D01*
X91843095Y-65919399D01*
X91849614Y-65919062D01*
X91945206Y-65909143D01*
X91958600Y-65906251D01*
X92112784Y-65854812D01*
X92125962Y-65848639D01*
X92263807Y-65763337D01*
X92275208Y-65754301D01*
X92389739Y-65639571D01*
X92398751Y-65628160D01*
X92483816Y-65490157D01*
X92489963Y-65476976D01*
X92541138Y-65322690D01*
X92544005Y-65309314D01*
X92553672Y-65214962D01*
X92554000Y-65208546D01*
X92554000Y-64783515D01*
X92549525Y-64768276D01*
X92548135Y-64767071D01*
X92540452Y-64765400D01*
X91718115Y-64765400D01*
X91702876Y-64769875D01*
X91701671Y-64771265D01*
X91700000Y-64778948D01*
X91700000Y-65901284D01*
X91192000Y-65901284D01*
X91192000Y-64783515D01*
X91187525Y-64768276D01*
X91186135Y-64767071D01*
X91178452Y-64765400D01*
X90356116Y-64765400D01*
X90340877Y-64769875D01*
X90339672Y-64771265D01*
X90338001Y-64778948D01*
X90338001Y-65208495D01*
X86954000Y-65208495D01*
X86954000Y-64783515D01*
X86949525Y-64768276D01*
X86948135Y-64767071D01*
X86940452Y-64765400D01*
X86118115Y-64765400D01*
X86102876Y-64769875D01*
X86101671Y-64771265D01*
X86100000Y-64778948D01*
X86100000Y-65901284D01*
X85592000Y-65901284D01*
X85592000Y-64239285D01*
X86100000Y-64239285D01*
X86104475Y-64254524D01*
X86105865Y-64255729D01*
X86113548Y-64257400D01*
X86935884Y-64257400D01*
X86951123Y-64252925D01*
X86952328Y-64251535D01*
X86953999Y-64243852D01*
X86953999Y-64239285D01*
X90338000Y-64239285D01*
X90342475Y-64254524D01*
X90343865Y-64255729D01*
X90351548Y-64257400D01*
X91173885Y-64257400D01*
X91189124Y-64252925D01*
X91190329Y-64251535D01*
X91192000Y-64243852D01*
X91192000Y-64239285D01*
X91700000Y-64239285D01*
X91704475Y-64254524D01*
X91705865Y-64255729D01*
X91713548Y-64257400D01*
X92535884Y-64257400D01*
X92551123Y-64252925D01*
X92552328Y-64251535D01*
X92553999Y-64243852D01*
X92553999Y-63814305D01*
X92553662Y-63807786D01*
X92543743Y-63712194D01*
X92540851Y-63698800D01*
X92489412Y-63544616D01*
X92483239Y-63531438D01*
X92397937Y-63393593D01*
X92388901Y-63382192D01*
X92274171Y-63267661D01*
X92262760Y-63258649D01*
X92124757Y-63173584D01*
X92111576Y-63167437D01*
X91957290Y-63116262D01*
X91943914Y-63113395D01*
X91849562Y-63103728D01*
X91843145Y-63103400D01*
X91718115Y-63103400D01*
X91702876Y-63107875D01*
X91701671Y-63109265D01*
X91700000Y-63116948D01*
X91700000Y-64239285D01*
X91192000Y-64239285D01*
X91192000Y-63121516D01*
X91187525Y-63106277D01*
X91186135Y-63105072D01*
X91178452Y-63103401D01*
X91048905Y-63103401D01*
X91042386Y-63103738D01*
X90946794Y-63113657D01*
X90933400Y-63116549D01*
X90779216Y-63167988D01*
X90766038Y-63174161D01*
X90628193Y-63259463D01*
X90616792Y-63268499D01*
X90502261Y-63383229D01*
X90493249Y-63394640D01*
X90408184Y-63532643D01*
X90402037Y-63545824D01*
X90350862Y-63700110D01*
X90347995Y-63713486D01*
X90338328Y-63807838D01*
X90338000Y-63814255D01*
X90338000Y-64239285D01*
X86953999Y-64239285D01*
X86953999Y-63814305D01*
X86953662Y-63807786D01*
X86943743Y-63712194D01*
X86940851Y-63698800D01*
X86889412Y-63544616D01*
X86883239Y-63531438D01*
X86797937Y-63393593D01*
X86788901Y-63382192D01*
X86674171Y-63267661D01*
X86662760Y-63258649D01*
X86524757Y-63173584D01*
X86511576Y-63167437D01*
X86357290Y-63116262D01*
X86343914Y-63113395D01*
X86249562Y-63103728D01*
X86243145Y-63103400D01*
X86118115Y-63103400D01*
X86102876Y-63107875D01*
X86101671Y-63109265D01*
X86100000Y-63116948D01*
X86100000Y-64239285D01*
X85592000Y-64239285D01*
X85592000Y-63121516D01*
X85587525Y-63106277D01*
X85586135Y-63105072D01*
X85578452Y-63103401D01*
X85448905Y-63103401D01*
X85442386Y-63103738D01*
X85346794Y-63113657D01*
X85333400Y-63116549D01*
X85179216Y-63167988D01*
X85166038Y-63174161D01*
X85028193Y-63259463D01*
X85016792Y-63268499D01*
X84902261Y-63383229D01*
X84893249Y-63394640D01*
X84866560Y-63437938D01*
X84813788Y-63485431D01*
X84743716Y-63496855D01*
X84678593Y-63468581D01*
X84639093Y-63409587D01*
X84633300Y-63371822D01*
X84633300Y-61705223D01*
X84633302Y-61704453D01*
X84633721Y-61635854D01*
X84633776Y-61626879D01*
X84625650Y-61598447D01*
X84622072Y-61581685D01*
X84619152Y-61561298D01*
X84617880Y-61552413D01*
X84607251Y-61529036D01*
X84600804Y-61511513D01*
X84596216Y-61495462D01*
X84593749Y-61486829D01*
X84588956Y-61479232D01*
X84577970Y-61461820D01*
X84569830Y-61446735D01*
X84557592Y-61419818D01*
X84540830Y-61400365D01*
X84529727Y-61385361D01*
X84516024Y-61363642D01*
X84509299Y-61357703D01*
X84509296Y-61357699D01*
X84493862Y-61344068D01*
X84481818Y-61331876D01*
X84468373Y-61316273D01*
X84468370Y-61316271D01*
X84462513Y-61309473D01*
X84440965Y-61295506D01*
X84426091Y-61284215D01*
X84413583Y-61273169D01*
X84413582Y-61273168D01*
X84406849Y-61267222D01*
X84380087Y-61254657D01*
X84365109Y-61246337D01*
X84347817Y-61235129D01*
X84347812Y-61235127D01*
X84340285Y-61230248D01*
X84331692Y-61227678D01*
X84331687Y-61227676D01*
X84315680Y-61222889D01*
X84298236Y-61216228D01*
X84283124Y-61209133D01*
X84283122Y-61209132D01*
X84275000Y-61205319D01*
X84266133Y-61203938D01*
X84266132Y-61203938D01*
X84256490Y-61202437D01*
X84245783Y-61200770D01*
X84229068Y-61196987D01*
X84209334Y-61191085D01*
X84209328Y-61191084D01*
X84200734Y-61188514D01*
X84191763Y-61188459D01*
X84191762Y-61188459D01*
X84181703Y-61188398D01*
X84166294Y-61188304D01*
X84165511Y-61188271D01*
X84164414Y-61188100D01*
X84133423Y-61188100D01*
X84132653Y-61188098D01*
X84059015Y-61187648D01*
X84059014Y-61187648D01*
X84055079Y-61187624D01*
X84053735Y-61188008D01*
X84052390Y-61188100D01*
X70887700Y-61188100D01*
X70819579Y-61168098D01*
X70773086Y-61114442D01*
X70761700Y-61062100D01*
X70761700Y-59681977D01*
X72762577Y-59681977D01*
X72771874Y-59693993D01*
X72814869Y-59724098D01*
X72824355Y-59729576D01*
X73015793Y-59818845D01*
X73026085Y-59822591D01*
X73230109Y-59877259D01*
X73240904Y-59879162D01*
X73451325Y-59897572D01*
X73462275Y-59897572D01*
X73672696Y-59879162D01*
X73683491Y-59877259D01*
X73887515Y-59822591D01*
X73897807Y-59818845D01*
X74089245Y-59729576D01*
X74098731Y-59724098D01*
X74142564Y-59693407D01*
X74150939Y-59682929D01*
X74143871Y-59669481D01*
X73469612Y-58995222D01*
X73455668Y-58987608D01*
X73453835Y-58987739D01*
X73447220Y-58991990D01*
X72769007Y-59670203D01*
X72762577Y-59681977D01*
X70761700Y-59681977D01*
X70761700Y-58628675D01*
X72182428Y-58628675D01*
X72200838Y-58839096D01*
X72202741Y-58849891D01*
X72257409Y-59053915D01*
X72261155Y-59064207D01*
X72350423Y-59255641D01*
X72355903Y-59265132D01*
X72386594Y-59308965D01*
X72397071Y-59317340D01*
X72410518Y-59310272D01*
X73084778Y-58636012D01*
X73091156Y-58624332D01*
X73821208Y-58624332D01*
X73821339Y-58626165D01*
X73825590Y-58632780D01*
X74503803Y-59310993D01*
X74515577Y-59317423D01*
X74527593Y-59308126D01*
X74557697Y-59265132D01*
X74563177Y-59255641D01*
X74612329Y-59150235D01*
X74659247Y-59096950D01*
X74727524Y-59077489D01*
X74795484Y-59098031D01*
X74840719Y-59150235D01*
X74889986Y-59255889D01*
X74889989Y-59255894D01*
X74892312Y-59260876D01*
X74895468Y-59265383D01*
X74895469Y-59265385D01*
X74994132Y-59406290D01*
X75019823Y-59442981D01*
X75177019Y-59600177D01*
X75181527Y-59603334D01*
X75181530Y-59603336D01*
X75257295Y-59656387D01*
X75359123Y-59727688D01*
X75364105Y-59730011D01*
X75364110Y-59730014D01*
X75554610Y-59818845D01*
X75560604Y-59821640D01*
X75565912Y-59823062D01*
X75565914Y-59823063D01*
X75631749Y-59840703D01*
X75775337Y-59879178D01*
X75996800Y-59898553D01*
X76218263Y-59879178D01*
X76361851Y-59840703D01*
X76427686Y-59823063D01*
X76427688Y-59823062D01*
X76432996Y-59821640D01*
X76438990Y-59818845D01*
X76629490Y-59730014D01*
X76629495Y-59730011D01*
X76634477Y-59727688D01*
X76736305Y-59656387D01*
X76812070Y-59603336D01*
X76812073Y-59603334D01*
X76816581Y-59600177D01*
X76973777Y-59442981D01*
X76999469Y-59406290D01*
X77098131Y-59265385D01*
X77098132Y-59265383D01*
X77101288Y-59260876D01*
X77103611Y-59255894D01*
X77103614Y-59255889D01*
X77152605Y-59150827D01*
X77199523Y-59097542D01*
X77267800Y-59078081D01*
X77335760Y-59098623D01*
X77380995Y-59150827D01*
X77429986Y-59255889D01*
X77429989Y-59255894D01*
X77432312Y-59260876D01*
X77435468Y-59265383D01*
X77435469Y-59265385D01*
X77534132Y-59406290D01*
X77559823Y-59442981D01*
X77717019Y-59600177D01*
X77721527Y-59603334D01*
X77721530Y-59603336D01*
X77797295Y-59656387D01*
X77899123Y-59727688D01*
X77904105Y-59730011D01*
X77904110Y-59730014D01*
X78094610Y-59818845D01*
X78100604Y-59821640D01*
X78105912Y-59823062D01*
X78105914Y-59823063D01*
X78171749Y-59840703D01*
X78315337Y-59879178D01*
X78536800Y-59898553D01*
X78758263Y-59879178D01*
X78901851Y-59840703D01*
X78967686Y-59823063D01*
X78967688Y-59823062D01*
X78972996Y-59821640D01*
X78978990Y-59818845D01*
X79169490Y-59730014D01*
X79169495Y-59730011D01*
X79174477Y-59727688D01*
X79276305Y-59656387D01*
X79352070Y-59603336D01*
X79352073Y-59603334D01*
X79356581Y-59600177D01*
X79513777Y-59442981D01*
X79539469Y-59406290D01*
X79638131Y-59265385D01*
X79638132Y-59265383D01*
X79641288Y-59260876D01*
X79643611Y-59255894D01*
X79643614Y-59255889D01*
X79692605Y-59150827D01*
X79739523Y-59097542D01*
X79807800Y-59078081D01*
X79875760Y-59098623D01*
X79920995Y-59150827D01*
X79969986Y-59255889D01*
X79969989Y-59255894D01*
X79972312Y-59260876D01*
X79975468Y-59265383D01*
X79975469Y-59265385D01*
X80074132Y-59406290D01*
X80099823Y-59442981D01*
X80257019Y-59600177D01*
X80261527Y-59603334D01*
X80261530Y-59603336D01*
X80337295Y-59656387D01*
X80439123Y-59727688D01*
X80444105Y-59730011D01*
X80444110Y-59730014D01*
X80634610Y-59818845D01*
X80640604Y-59821640D01*
X80645912Y-59823062D01*
X80645914Y-59823063D01*
X80711749Y-59840703D01*
X80855337Y-59879178D01*
X81076800Y-59898553D01*
X81298263Y-59879178D01*
X81441851Y-59840703D01*
X81507686Y-59823063D01*
X81507688Y-59823062D01*
X81512996Y-59821640D01*
X81518990Y-59818845D01*
X81709490Y-59730014D01*
X81709495Y-59730011D01*
X81714477Y-59727688D01*
X81816305Y-59656387D01*
X81892070Y-59603336D01*
X81892073Y-59603334D01*
X81896581Y-59600177D01*
X82053777Y-59442981D01*
X82079469Y-59406290D01*
X82178131Y-59265385D01*
X82178132Y-59265383D01*
X82181288Y-59260876D01*
X82183611Y-59255894D01*
X82183614Y-59255889D01*
X82272917Y-59064378D01*
X82272918Y-59064377D01*
X82275240Y-59059396D01*
X82332778Y-58844663D01*
X82352153Y-58623200D01*
X82332778Y-58401737D01*
X82288111Y-58235038D01*
X82276663Y-58192314D01*
X82276662Y-58192312D01*
X82275240Y-58187004D01*
X82247989Y-58128564D01*
X82183614Y-57990511D01*
X82183611Y-57990506D01*
X82181288Y-57985524D01*
X82178131Y-57981015D01*
X82056936Y-57807930D01*
X82056934Y-57807927D01*
X82053777Y-57803419D01*
X81896581Y-57646223D01*
X81892073Y-57643066D01*
X81892070Y-57643064D01*
X81814029Y-57588419D01*
X81769701Y-57532962D01*
X81760300Y-57485206D01*
X81760300Y-57221194D01*
X81780302Y-57153073D01*
X81814029Y-57117981D01*
X81892070Y-57063336D01*
X81892073Y-57063334D01*
X81896581Y-57060177D01*
X82053777Y-56902981D01*
X82111581Y-56820429D01*
X82167038Y-56776101D01*
X82214794Y-56766700D01*
X84807955Y-56766700D01*
X84816524Y-56766992D01*
X84864458Y-56770260D01*
X84864462Y-56770260D01*
X84872034Y-56770776D01*
X84879511Y-56769471D01*
X84879514Y-56769471D01*
X84932647Y-56760198D01*
X84939171Y-56759235D01*
X84992691Y-56752758D01*
X85000235Y-56751845D01*
X85007345Y-56749158D01*
X85012248Y-56747954D01*
X85022734Y-56745086D01*
X85027526Y-56743639D01*
X85035004Y-56742334D01*
X85041957Y-56739282D01*
X85091341Y-56717605D01*
X85097446Y-56715114D01*
X85147882Y-56696055D01*
X85147885Y-56696053D01*
X85154989Y-56693369D01*
X85161246Y-56689069D01*
X85165714Y-56686733D01*
X85175160Y-56681475D01*
X85179526Y-56678893D01*
X85186485Y-56675838D01*
X85235304Y-56638377D01*
X85240623Y-56634514D01*
X85285065Y-56603969D01*
X85291326Y-56599666D01*
X85331233Y-56554876D01*
X85336213Y-56549602D01*
X86122405Y-55763410D01*
X86184717Y-55729384D01*
X86255532Y-55734449D01*
X86312368Y-55776996D01*
X86337179Y-55843516D01*
X86337500Y-55852505D01*
X86337500Y-56945902D01*
X86337693Y-56948350D01*
X86337693Y-56948358D01*
X86339927Y-56976733D01*
X86340438Y-56983231D01*
X86365011Y-57067811D01*
X86384643Y-57135388D01*
X86384644Y-57135390D01*
X86386855Y-57143001D01*
X86444302Y-57240137D01*
X86461761Y-57308952D01*
X86439245Y-57376283D01*
X86387097Y-57419382D01*
X86264878Y-57473797D01*
X86264876Y-57473798D01*
X86258848Y-57476482D01*
X86104347Y-57588734D01*
X85976560Y-57730656D01*
X85881073Y-57896044D01*
X85822058Y-58077672D01*
X85821368Y-58084233D01*
X85821368Y-58084235D01*
X85810567Y-58187004D01*
X85802096Y-58267600D01*
X85802786Y-58274165D01*
X85819456Y-58432768D01*
X85822058Y-58457528D01*
X85881073Y-58639156D01*
X85976560Y-58804544D01*
X85980978Y-58809451D01*
X85980979Y-58809452D01*
X86099670Y-58941272D01*
X86104347Y-58946466D01*
X86160974Y-58987608D01*
X86252473Y-59054086D01*
X86258848Y-59058718D01*
X86264876Y-59061402D01*
X86264878Y-59061403D01*
X86421646Y-59131200D01*
X86433312Y-59136394D01*
X86501214Y-59150827D01*
X86613656Y-59174728D01*
X86613661Y-59174728D01*
X86620113Y-59176100D01*
X86655211Y-59176100D01*
X86723332Y-59196102D01*
X86769825Y-59249758D01*
X86779929Y-59320032D01*
X86750435Y-59384612D01*
X86719350Y-59410554D01*
X86596322Y-59483311D01*
X86583896Y-59492951D01*
X86477551Y-59599296D01*
X86467911Y-59611722D01*
X86391352Y-59741179D01*
X86385107Y-59755610D01*
X86342731Y-59901465D01*
X86340430Y-59914067D01*
X86338193Y-59942484D01*
X86338000Y-59947414D01*
X86338000Y-60364285D01*
X86342475Y-60379524D01*
X86343865Y-60380729D01*
X86351548Y-60382400D01*
X86873885Y-60382400D01*
X86889124Y-60377925D01*
X86890329Y-60376535D01*
X86892000Y-60368852D01*
X86892000Y-59374522D01*
X86885083Y-59350964D01*
X86855694Y-59305235D01*
X86855694Y-59234238D01*
X86894077Y-59174512D01*
X86950393Y-59146489D01*
X86967582Y-59142836D01*
X86991430Y-59137767D01*
X86991433Y-59137766D01*
X86997888Y-59136394D01*
X87009554Y-59131200D01*
X87166322Y-59061403D01*
X87166324Y-59061402D01*
X87172352Y-59058718D01*
X87178728Y-59054086D01*
X87270226Y-58987608D01*
X87326853Y-58946466D01*
X87331530Y-58941272D01*
X87450221Y-58809452D01*
X87450222Y-58809451D01*
X87454640Y-58804544D01*
X87550127Y-58639156D01*
X87572034Y-58571735D01*
X87612106Y-58513130D01*
X87677503Y-58485493D01*
X87747460Y-58497600D01*
X87780961Y-58521576D01*
X88397190Y-59137804D01*
X88431215Y-59200117D01*
X88426151Y-59270932D01*
X88383604Y-59327768D01*
X88317084Y-59352579D01*
X88308095Y-59352900D01*
X87929498Y-59352900D01*
X87927050Y-59353093D01*
X87927042Y-59353093D01*
X87898579Y-59355333D01*
X87898574Y-59355334D01*
X87892169Y-59355838D01*
X87793127Y-59384612D01*
X87740012Y-59400043D01*
X87740010Y-59400044D01*
X87732399Y-59402255D01*
X87709649Y-59415710D01*
X87640835Y-59433170D01*
X87581370Y-59415711D01*
X87566221Y-59406752D01*
X87551790Y-59400507D01*
X87417395Y-59361461D01*
X87403294Y-59361501D01*
X87400000Y-59368770D01*
X87400000Y-59693830D01*
X87389885Y-59742675D01*
X87386855Y-59747799D01*
X87384645Y-59755407D01*
X87384643Y-59755411D01*
X87370192Y-59805155D01*
X87340438Y-59907569D01*
X87339934Y-59913974D01*
X87339933Y-59913979D01*
X87337693Y-59942442D01*
X87337500Y-59944898D01*
X87337500Y-60764400D01*
X87317498Y-60832521D01*
X87263842Y-60879014D01*
X87211500Y-60890400D01*
X86356116Y-60890400D01*
X86340877Y-60894875D01*
X86339672Y-60896265D01*
X86338001Y-60903948D01*
X86338001Y-61325384D01*
X86338195Y-61330320D01*
X86340430Y-61358736D01*
X86342730Y-61371331D01*
X86385107Y-61517190D01*
X86391352Y-61531621D01*
X86467911Y-61661078D01*
X86477551Y-61673504D01*
X86583896Y-61779849D01*
X86596322Y-61789489D01*
X86725779Y-61866048D01*
X86740210Y-61872293D01*
X86886065Y-61914669D01*
X86898667Y-61916970D01*
X86927084Y-61919207D01*
X86932014Y-61919400D01*
X86947357Y-61919400D01*
X87015478Y-61939402D01*
X87061971Y-61993058D01*
X87072667Y-62032228D01*
X87092058Y-62216728D01*
X87151073Y-62398356D01*
X87246560Y-62563744D01*
X87374347Y-62705666D01*
X87528848Y-62817918D01*
X87534876Y-62820602D01*
X87534878Y-62820603D01*
X87697281Y-62892909D01*
X87703312Y-62895594D01*
X87796713Y-62915447D01*
X87883656Y-62933928D01*
X87883661Y-62933928D01*
X87890113Y-62935300D01*
X88081087Y-62935300D01*
X88087539Y-62933928D01*
X88087544Y-62933928D01*
X88174487Y-62915447D01*
X88267888Y-62895594D01*
X88273919Y-62892909D01*
X88436322Y-62820603D01*
X88436324Y-62820602D01*
X88442352Y-62817918D01*
X88596853Y-62705666D01*
X88724640Y-62563744D01*
X88820127Y-62398356D01*
X88879142Y-62216728D01*
X88898481Y-62032729D01*
X88925494Y-61967073D01*
X88983716Y-61926443D01*
X89023791Y-61919900D01*
X89362502Y-61919900D01*
X89364950Y-61919707D01*
X89364958Y-61919707D01*
X89393421Y-61917467D01*
X89393426Y-61917466D01*
X89399831Y-61916962D01*
X89499769Y-61887928D01*
X89551988Y-61872757D01*
X89551990Y-61872756D01*
X89559601Y-61870545D01*
X89566426Y-61866509D01*
X89581863Y-61857380D01*
X89650679Y-61839922D01*
X89710137Y-61857380D01*
X89725574Y-61866509D01*
X89732399Y-61870545D01*
X89740010Y-61872756D01*
X89740012Y-61872757D01*
X89792231Y-61887928D01*
X89892169Y-61916962D01*
X89898574Y-61917466D01*
X89898579Y-61917467D01*
X89927042Y-61919707D01*
X89927050Y-61919707D01*
X89929498Y-61919900D01*
X90362502Y-61919900D01*
X90364950Y-61919707D01*
X90364958Y-61919707D01*
X90393421Y-61917467D01*
X90393426Y-61917466D01*
X90399831Y-61916962D01*
X90499769Y-61887928D01*
X90551988Y-61872757D01*
X90551990Y-61872756D01*
X90559601Y-61870545D01*
X90616539Y-61836872D01*
X90695980Y-61789891D01*
X90695983Y-61789889D01*
X90702807Y-61785853D01*
X90820453Y-61668207D01*
X90824489Y-61661383D01*
X90824491Y-61661380D01*
X90901108Y-61531827D01*
X90905145Y-61525001D01*
X90907415Y-61517190D01*
X90937679Y-61413016D01*
X90951562Y-61365231D01*
X90952074Y-61358736D01*
X90954307Y-61330358D01*
X90954307Y-61330350D01*
X90954500Y-61327902D01*
X90954500Y-60084397D01*
X90974502Y-60016276D01*
X91029251Y-59969290D01*
X91128722Y-59925003D01*
X91128724Y-59925002D01*
X91134752Y-59922318D01*
X91146109Y-59914067D01*
X91271364Y-59823063D01*
X91289253Y-59810066D01*
X91338465Y-59755411D01*
X91412621Y-59673052D01*
X91412622Y-59673051D01*
X91417040Y-59668144D01*
X91512527Y-59502756D01*
X91571542Y-59321128D01*
X91572821Y-59308965D01*
X91590814Y-59137765D01*
X91591504Y-59131200D01*
X91571542Y-58941272D01*
X91512527Y-58759644D01*
X91484974Y-58711920D01*
X91446267Y-58644879D01*
X91417040Y-58594256D01*
X91401967Y-58577515D01*
X91293675Y-58457245D01*
X91293674Y-58457244D01*
X91289253Y-58452334D01*
X91134752Y-58340082D01*
X91128724Y-58337398D01*
X91128722Y-58337397D01*
X90966319Y-58265091D01*
X90966318Y-58265091D01*
X90960288Y-58262406D01*
X90866888Y-58242553D01*
X90779944Y-58224072D01*
X90779939Y-58224072D01*
X90773487Y-58222700D01*
X90582513Y-58222700D01*
X90576061Y-58224072D01*
X90576056Y-58224072D01*
X90489112Y-58242553D01*
X90395712Y-58262406D01*
X90389682Y-58265091D01*
X90389681Y-58265091D01*
X90227278Y-58337397D01*
X90227276Y-58337398D01*
X90221248Y-58340082D01*
X90066747Y-58452334D01*
X90062326Y-58457244D01*
X90062325Y-58457245D01*
X89942991Y-58589779D01*
X89882545Y-58627019D01*
X89811561Y-58625667D01*
X89752577Y-58586154D01*
X89746897Y-58578106D01*
X89746638Y-58577515D01*
X89709177Y-58528696D01*
X89705314Y-58523377D01*
X89674769Y-58478935D01*
X89670466Y-58472674D01*
X89625676Y-58432767D01*
X89620402Y-58427787D01*
X88945610Y-57752995D01*
X88911584Y-57690683D01*
X88916649Y-57619868D01*
X88959196Y-57563032D01*
X89025716Y-57538221D01*
X89034705Y-57537900D01*
X89362502Y-57537900D01*
X89364950Y-57537707D01*
X89364958Y-57537707D01*
X89393421Y-57535467D01*
X89393426Y-57535466D01*
X89399831Y-57534962D01*
X89499769Y-57505928D01*
X89551988Y-57490757D01*
X89551990Y-57490756D01*
X89559601Y-57488545D01*
X89582351Y-57475090D01*
X89651165Y-57457630D01*
X89710630Y-57475089D01*
X89725779Y-57484048D01*
X89740210Y-57490293D01*
X89874605Y-57529339D01*
X89888706Y-57529299D01*
X89892000Y-57522030D01*
X89892000Y-57516278D01*
X90400000Y-57516278D01*
X90403973Y-57529809D01*
X90411871Y-57530944D01*
X90551790Y-57490293D01*
X90566221Y-57484048D01*
X90695678Y-57407489D01*
X90708104Y-57397849D01*
X90814449Y-57291504D01*
X90824089Y-57279078D01*
X90900648Y-57149621D01*
X90906893Y-57135190D01*
X90949269Y-56989335D01*
X90951570Y-56976733D01*
X90953807Y-56948316D01*
X90954000Y-56943386D01*
X90954000Y-56526515D01*
X90949525Y-56511276D01*
X90948135Y-56510071D01*
X90940452Y-56508400D01*
X90418115Y-56508400D01*
X90402876Y-56512875D01*
X90401671Y-56514265D01*
X90400000Y-56521948D01*
X90400000Y-57516278D01*
X89892000Y-57516278D01*
X89892000Y-57196970D01*
X89902115Y-57148125D01*
X89905145Y-57143001D01*
X89907355Y-57135393D01*
X89907357Y-57135389D01*
X89949767Y-56989408D01*
X89951562Y-56983231D01*
X89952074Y-56976733D01*
X89954307Y-56948358D01*
X89954307Y-56948350D01*
X89954500Y-56945902D01*
X89954500Y-56126400D01*
X89974502Y-56058279D01*
X90028158Y-56011786D01*
X90080500Y-56000400D01*
X90935884Y-56000400D01*
X90951123Y-55995925D01*
X90952328Y-55994535D01*
X90953999Y-55986852D01*
X90953999Y-55565417D01*
X90953805Y-55560480D01*
X90951570Y-55532064D01*
X90949270Y-55519469D01*
X90906893Y-55373610D01*
X90900648Y-55359179D01*
X90824089Y-55229722D01*
X90814449Y-55217296D01*
X90708104Y-55110951D01*
X90706865Y-55109990D01*
X113588154Y-55109990D01*
X113588424Y-55114109D01*
X113607049Y-55398274D01*
X113607517Y-55405416D01*
X113608319Y-55409449D01*
X113608320Y-55409455D01*
X113664470Y-55691737D01*
X113665276Y-55695787D01*
X113666603Y-55699696D01*
X113666604Y-55699700D01*
X113721608Y-55861737D01*
X113760441Y-55976135D01*
X113812681Y-56082068D01*
X113834544Y-56126400D01*
X113891385Y-56241663D01*
X113893679Y-56245096D01*
X114031921Y-56451990D01*
X114055867Y-56487828D01*
X114058581Y-56490922D01*
X114058585Y-56490928D01*
X114186142Y-56636378D01*
X114251073Y-56710417D01*
X114254162Y-56713126D01*
X114470562Y-56902905D01*
X114470568Y-56902909D01*
X114473662Y-56905623D01*
X114477088Y-56907912D01*
X114477093Y-56907916D01*
X114598946Y-56989335D01*
X114719827Y-57070105D01*
X114723526Y-57071929D01*
X114723531Y-57071932D01*
X114841694Y-57130203D01*
X114985355Y-57201049D01*
X114989260Y-57202374D01*
X114989261Y-57202375D01*
X115261790Y-57294886D01*
X115261794Y-57294887D01*
X115265703Y-57296214D01*
X115269747Y-57297018D01*
X115269753Y-57297020D01*
X115552035Y-57353170D01*
X115552041Y-57353171D01*
X115556074Y-57353973D01*
X115560179Y-57354242D01*
X115560186Y-57354243D01*
X115847381Y-57373066D01*
X115851500Y-57373336D01*
X115855619Y-57373066D01*
X116142814Y-57354243D01*
X116142821Y-57354242D01*
X116146926Y-57353973D01*
X116150959Y-57353171D01*
X116150965Y-57353170D01*
X116433247Y-57297020D01*
X116433253Y-57297018D01*
X116437297Y-57296214D01*
X116441206Y-57294887D01*
X116441210Y-57294886D01*
X116713739Y-57202375D01*
X116713740Y-57202374D01*
X116717645Y-57201049D01*
X116861306Y-57130203D01*
X116979469Y-57071932D01*
X116979474Y-57071929D01*
X116983173Y-57070105D01*
X117104054Y-56989335D01*
X117225907Y-56907916D01*
X117225912Y-56907912D01*
X117229338Y-56905623D01*
X117232432Y-56902909D01*
X117232438Y-56902905D01*
X117448838Y-56713126D01*
X117451927Y-56710417D01*
X117516858Y-56636378D01*
X117537886Y-56612400D01*
X128390891Y-56612400D01*
X147605510Y-56612400D01*
X147605510Y-52150400D01*
X128390891Y-52150400D01*
X128390891Y-56612400D01*
X117537886Y-56612400D01*
X117644415Y-56490928D01*
X117644419Y-56490922D01*
X117647133Y-56487828D01*
X117671080Y-56451990D01*
X117809321Y-56245096D01*
X117811615Y-56241663D01*
X117868457Y-56126400D01*
X117890319Y-56082068D01*
X117942559Y-55976135D01*
X117981392Y-55861737D01*
X118036396Y-55699700D01*
X118036397Y-55699696D01*
X118037724Y-55695787D01*
X118038530Y-55691737D01*
X118094680Y-55409455D01*
X118094681Y-55409449D01*
X118095483Y-55405416D01*
X118095952Y-55398274D01*
X118114576Y-55114109D01*
X118114846Y-55109990D01*
X118113492Y-55089330D01*
X118095753Y-54818676D01*
X118095752Y-54818669D01*
X118095483Y-54814564D01*
X118091267Y-54793365D01*
X118038530Y-54528243D01*
X118038528Y-54528237D01*
X118037724Y-54524193D01*
X117994717Y-54397496D01*
X117943885Y-54247751D01*
X117943884Y-54247750D01*
X117942559Y-54243845D01*
X117811615Y-53978317D01*
X117764369Y-53907608D01*
X117649426Y-53735583D01*
X117649422Y-53735578D01*
X117647133Y-53732152D01*
X117644419Y-53729058D01*
X117644415Y-53729052D01*
X117454636Y-53512652D01*
X117451927Y-53509563D01*
X117420512Y-53482013D01*
X117232438Y-53317075D01*
X117232432Y-53317071D01*
X117229338Y-53314357D01*
X117225912Y-53312068D01*
X117225907Y-53312064D01*
X116986606Y-53152169D01*
X116983173Y-53149875D01*
X116979474Y-53148051D01*
X116979469Y-53148048D01*
X116816695Y-53067777D01*
X116717645Y-53018931D01*
X116707753Y-53015573D01*
X116441210Y-52925094D01*
X116441206Y-52925093D01*
X116437297Y-52923766D01*
X116433253Y-52922962D01*
X116433247Y-52922960D01*
X116150965Y-52866810D01*
X116150959Y-52866809D01*
X116146926Y-52866007D01*
X116142821Y-52865738D01*
X116142814Y-52865737D01*
X115855619Y-52846914D01*
X115851500Y-52846644D01*
X115847381Y-52846914D01*
X115560186Y-52865737D01*
X115560179Y-52865738D01*
X115556074Y-52866007D01*
X115552041Y-52866809D01*
X115552035Y-52866810D01*
X115269753Y-52922960D01*
X115269747Y-52922962D01*
X115265703Y-52923766D01*
X115261794Y-52925093D01*
X115261790Y-52925094D01*
X114995247Y-53015573D01*
X114985355Y-53018931D01*
X114886305Y-53067777D01*
X114723531Y-53148048D01*
X114723526Y-53148051D01*
X114719827Y-53149875D01*
X114716394Y-53152169D01*
X114477093Y-53312064D01*
X114477088Y-53312068D01*
X114473662Y-53314357D01*
X114470568Y-53317071D01*
X114470562Y-53317075D01*
X114282488Y-53482013D01*
X114251073Y-53509563D01*
X114248364Y-53512652D01*
X114058585Y-53729052D01*
X114058581Y-53729058D01*
X114055867Y-53732152D01*
X114053578Y-53735578D01*
X114053574Y-53735583D01*
X113938631Y-53907608D01*
X113891385Y-53978317D01*
X113760441Y-54243845D01*
X113759116Y-54247750D01*
X113759115Y-54247751D01*
X113708284Y-54397496D01*
X113665276Y-54524193D01*
X113664472Y-54528237D01*
X113664470Y-54528243D01*
X113611734Y-54793365D01*
X113607517Y-54814564D01*
X113607248Y-54818669D01*
X113607247Y-54818676D01*
X113589508Y-55089330D01*
X113588154Y-55109990D01*
X90706865Y-55109990D01*
X90695678Y-55101311D01*
X90566221Y-55024752D01*
X90551790Y-55018507D01*
X90429509Y-54982980D01*
X90369674Y-54944766D01*
X90339997Y-54880270D01*
X90344830Y-54823046D01*
X90347408Y-54815114D01*
X90352342Y-54799928D01*
X90372304Y-54610000D01*
X90363711Y-54528243D01*
X90353032Y-54426635D01*
X90353032Y-54426633D01*
X90352342Y-54420072D01*
X90293327Y-54238444D01*
X90197840Y-54073056D01*
X90148829Y-54018623D01*
X90074475Y-53936045D01*
X90074474Y-53936044D01*
X90070053Y-53931134D01*
X89915552Y-53818882D01*
X89909524Y-53816198D01*
X89909522Y-53816197D01*
X89747119Y-53743891D01*
X89747118Y-53743891D01*
X89741088Y-53741206D01*
X89628225Y-53717216D01*
X89560744Y-53702872D01*
X89560739Y-53702872D01*
X89554287Y-53701500D01*
X89363313Y-53701500D01*
X89356861Y-53702872D01*
X89356856Y-53702872D01*
X89289375Y-53717216D01*
X89176512Y-53741206D01*
X89170482Y-53743891D01*
X89170481Y-53743891D01*
X89008078Y-53816197D01*
X89008076Y-53816198D01*
X89002048Y-53818882D01*
X88847547Y-53931134D01*
X88843126Y-53936044D01*
X88843125Y-53936045D01*
X88768772Y-54018623D01*
X88719760Y-54073056D01*
X88624273Y-54238444D01*
X88619074Y-54254446D01*
X88577450Y-54382549D01*
X88537376Y-54441154D01*
X88471979Y-54468791D01*
X88402023Y-54456684D01*
X88368522Y-54432707D01*
X88336356Y-54400541D01*
X88330502Y-54394276D01*
X88306601Y-54366878D01*
X88293910Y-54352330D01*
X88243545Y-54316934D01*
X88238277Y-54313020D01*
X88195849Y-54279752D01*
X88189872Y-54275065D01*
X88182948Y-54271939D01*
X88178639Y-54269329D01*
X88169224Y-54263958D01*
X88164776Y-54261573D01*
X88158561Y-54257205D01*
X88101239Y-54234856D01*
X88095171Y-54232306D01*
X88039095Y-54206986D01*
X88031618Y-54205600D01*
X88026798Y-54204090D01*
X88016365Y-54201118D01*
X88011504Y-54199870D01*
X88004428Y-54197111D01*
X87943438Y-54189082D01*
X87936922Y-54188050D01*
X87883900Y-54178223D01*
X87876433Y-54176839D01*
X87868853Y-54177276D01*
X87868852Y-54177276D01*
X87816558Y-54180291D01*
X87809306Y-54180500D01*
X86083245Y-54180500D01*
X86074676Y-54180208D01*
X86026742Y-54176940D01*
X86026738Y-54176940D01*
X86019166Y-54176424D01*
X86011689Y-54177729D01*
X86011686Y-54177729D01*
X85958553Y-54187002D01*
X85952029Y-54187965D01*
X85898509Y-54194442D01*
X85890965Y-54195355D01*
X85883855Y-54198042D01*
X85878952Y-54199246D01*
X85868466Y-54202114D01*
X85863674Y-54203561D01*
X85856196Y-54204866D01*
X85849244Y-54207918D01*
X85849243Y-54207918D01*
X85799859Y-54229595D01*
X85793754Y-54232086D01*
X85743318Y-54251145D01*
X85743315Y-54251147D01*
X85736211Y-54253831D01*
X85729954Y-54258131D01*
X85725486Y-54260467D01*
X85716040Y-54265725D01*
X85711674Y-54268307D01*
X85704715Y-54271362D01*
X85655896Y-54308823D01*
X85650577Y-54312686D01*
X85644366Y-54316955D01*
X85599874Y-54347534D01*
X85594823Y-54353203D01*
X85559968Y-54392323D01*
X85554987Y-54397598D01*
X84589790Y-55362795D01*
X84527478Y-55396821D01*
X84500695Y-55399700D01*
X82214794Y-55399700D01*
X82146673Y-55379698D01*
X82111581Y-55345971D01*
X82056936Y-55267930D01*
X82056934Y-55267927D01*
X82053777Y-55263419D01*
X81896581Y-55106223D01*
X81892073Y-55103066D01*
X81892070Y-55103064D01*
X81814029Y-55048419D01*
X81769701Y-54992962D01*
X81760300Y-54945206D01*
X81760300Y-54681194D01*
X81780302Y-54613073D01*
X81814029Y-54577981D01*
X81892070Y-54523336D01*
X81892073Y-54523334D01*
X81896581Y-54520177D01*
X82053777Y-54362981D01*
X82057227Y-54358055D01*
X82178131Y-54185385D01*
X82178132Y-54185383D01*
X82181288Y-54180876D01*
X82183611Y-54175894D01*
X82183614Y-54175889D01*
X82272917Y-53984378D01*
X82272918Y-53984377D01*
X82275240Y-53979396D01*
X82332778Y-53764663D01*
X82352153Y-53543200D01*
X82332778Y-53321737D01*
X82275240Y-53107004D01*
X82261037Y-53076546D01*
X82261013Y-53076495D01*
X84738001Y-53076495D01*
X84738338Y-53083014D01*
X84748257Y-53178606D01*
X84751149Y-53192000D01*
X84802588Y-53346184D01*
X84808761Y-53359362D01*
X84894063Y-53497207D01*
X84903099Y-53508608D01*
X85017829Y-53623139D01*
X85029240Y-53632151D01*
X85167243Y-53717216D01*
X85180424Y-53723363D01*
X85334710Y-53774538D01*
X85348086Y-53777405D01*
X85442438Y-53787072D01*
X85448854Y-53787400D01*
X85573885Y-53787400D01*
X85589124Y-53782925D01*
X85590329Y-53781535D01*
X85592000Y-53773852D01*
X85592000Y-53769284D01*
X86100000Y-53769284D01*
X86104475Y-53784523D01*
X86105865Y-53785728D01*
X86113548Y-53787399D01*
X86243095Y-53787399D01*
X86249614Y-53787062D01*
X86345206Y-53777143D01*
X86358600Y-53774251D01*
X86512784Y-53722812D01*
X86525962Y-53716639D01*
X86663807Y-53631337D01*
X86675208Y-53622301D01*
X86789739Y-53507571D01*
X86798751Y-53496160D01*
X86883816Y-53358157D01*
X86889963Y-53344976D01*
X86941138Y-53190690D01*
X86944005Y-53177314D01*
X86953672Y-53082962D01*
X86954000Y-53076546D01*
X86954000Y-53076495D01*
X90338001Y-53076495D01*
X90338338Y-53083014D01*
X90348257Y-53178606D01*
X90351149Y-53192000D01*
X90402588Y-53346184D01*
X90408761Y-53359362D01*
X90494063Y-53497207D01*
X90503099Y-53508608D01*
X90617829Y-53623139D01*
X90629240Y-53632151D01*
X90767243Y-53717216D01*
X90780424Y-53723363D01*
X90934710Y-53774538D01*
X90948086Y-53777405D01*
X91042438Y-53787072D01*
X91048854Y-53787400D01*
X91173885Y-53787400D01*
X91189124Y-53782925D01*
X91190329Y-53781535D01*
X91192000Y-53773852D01*
X91192000Y-53769284D01*
X91700000Y-53769284D01*
X91704475Y-53784523D01*
X91705865Y-53785728D01*
X91713548Y-53787399D01*
X91843095Y-53787399D01*
X91849614Y-53787062D01*
X91945206Y-53777143D01*
X91958600Y-53774251D01*
X92112784Y-53722812D01*
X92125962Y-53716639D01*
X92263807Y-53631337D01*
X92275208Y-53622301D01*
X92389739Y-53507571D01*
X92398751Y-53496160D01*
X92483816Y-53358157D01*
X92489963Y-53344976D01*
X92541138Y-53190690D01*
X92544005Y-53177314D01*
X92553672Y-53082962D01*
X92554000Y-53076546D01*
X92554000Y-52651515D01*
X92549525Y-52636276D01*
X92548135Y-52635071D01*
X92540452Y-52633400D01*
X91718115Y-52633400D01*
X91702876Y-52637875D01*
X91701671Y-52639265D01*
X91700000Y-52646948D01*
X91700000Y-53769284D01*
X91192000Y-53769284D01*
X91192000Y-52651515D01*
X91187525Y-52636276D01*
X91186135Y-52635071D01*
X91178452Y-52633400D01*
X90356116Y-52633400D01*
X90340877Y-52637875D01*
X90339672Y-52639265D01*
X90338001Y-52646948D01*
X90338001Y-53076495D01*
X86954000Y-53076495D01*
X86954000Y-52651515D01*
X86949525Y-52636276D01*
X86948135Y-52635071D01*
X86940452Y-52633400D01*
X86118115Y-52633400D01*
X86102876Y-52637875D01*
X86101671Y-52639265D01*
X86100000Y-52646948D01*
X86100000Y-53769284D01*
X85592000Y-53769284D01*
X85592000Y-52651515D01*
X85587525Y-52636276D01*
X85586135Y-52635071D01*
X85578452Y-52633400D01*
X84756116Y-52633400D01*
X84740877Y-52637875D01*
X84739672Y-52639265D01*
X84738001Y-52646948D01*
X84738001Y-53076495D01*
X82261013Y-53076495D01*
X82183614Y-52910511D01*
X82183611Y-52910506D01*
X82181288Y-52905524D01*
X82153429Y-52865737D01*
X82056936Y-52727930D01*
X82056934Y-52727927D01*
X82053777Y-52723419D01*
X81896581Y-52566223D01*
X81892073Y-52563066D01*
X81892070Y-52563064D01*
X81816305Y-52510013D01*
X81714477Y-52438712D01*
X81709495Y-52436389D01*
X81709490Y-52436386D01*
X81517978Y-52347083D01*
X81517977Y-52347082D01*
X81512996Y-52344760D01*
X81507688Y-52343338D01*
X81507686Y-52343337D01*
X81441851Y-52325697D01*
X81298263Y-52287222D01*
X81076800Y-52267847D01*
X80855337Y-52287222D01*
X80711749Y-52325697D01*
X80645914Y-52343337D01*
X80645912Y-52343338D01*
X80640604Y-52344760D01*
X80635623Y-52347082D01*
X80635622Y-52347083D01*
X80444111Y-52436386D01*
X80444106Y-52436389D01*
X80439124Y-52438712D01*
X80434617Y-52441868D01*
X80434615Y-52441869D01*
X80261530Y-52563064D01*
X80261527Y-52563066D01*
X80257019Y-52566223D01*
X80099823Y-52723419D01*
X80096666Y-52727927D01*
X80096664Y-52727930D01*
X80000171Y-52865737D01*
X79972312Y-52905524D01*
X79969989Y-52910506D01*
X79969986Y-52910511D01*
X79920995Y-53015573D01*
X79874077Y-53068858D01*
X79805800Y-53088319D01*
X79737840Y-53067777D01*
X79692605Y-53015573D01*
X79643614Y-52910511D01*
X79643611Y-52910506D01*
X79641288Y-52905524D01*
X79613429Y-52865737D01*
X79516936Y-52727930D01*
X79516934Y-52727927D01*
X79513777Y-52723419D01*
X79356581Y-52566223D01*
X79352073Y-52563066D01*
X79352070Y-52563064D01*
X79276305Y-52510013D01*
X79174477Y-52438712D01*
X79169495Y-52436389D01*
X79169490Y-52436386D01*
X78977978Y-52347083D01*
X78977977Y-52347082D01*
X78972996Y-52344760D01*
X78967688Y-52343338D01*
X78967686Y-52343337D01*
X78901851Y-52325697D01*
X78758263Y-52287222D01*
X78536800Y-52267847D01*
X78315337Y-52287222D01*
X78171749Y-52325697D01*
X78105914Y-52343337D01*
X78105912Y-52343338D01*
X78100604Y-52344760D01*
X78095623Y-52347082D01*
X78095622Y-52347083D01*
X77904111Y-52436386D01*
X77904106Y-52436389D01*
X77899124Y-52438712D01*
X77894617Y-52441868D01*
X77894615Y-52441869D01*
X77721530Y-52563064D01*
X77721527Y-52563066D01*
X77717019Y-52566223D01*
X77559823Y-52723419D01*
X77556666Y-52727927D01*
X77556664Y-52727930D01*
X77460171Y-52865737D01*
X77432312Y-52905524D01*
X77429989Y-52910506D01*
X77429986Y-52910511D01*
X77380995Y-53015573D01*
X77334077Y-53068858D01*
X77265800Y-53088319D01*
X77197840Y-53067777D01*
X77152605Y-53015573D01*
X77103614Y-52910511D01*
X77103611Y-52910506D01*
X77101288Y-52905524D01*
X77073429Y-52865737D01*
X76976936Y-52727930D01*
X76976934Y-52727927D01*
X76973777Y-52723419D01*
X76816581Y-52566223D01*
X76812073Y-52563066D01*
X76812070Y-52563064D01*
X76736305Y-52510013D01*
X76634477Y-52438712D01*
X76629495Y-52436389D01*
X76629490Y-52436386D01*
X76437978Y-52347083D01*
X76437977Y-52347082D01*
X76432996Y-52344760D01*
X76427688Y-52343338D01*
X76427686Y-52343337D01*
X76361851Y-52325697D01*
X76218263Y-52287222D01*
X75996800Y-52267847D01*
X75775337Y-52287222D01*
X75631749Y-52325697D01*
X75565914Y-52343337D01*
X75565912Y-52343338D01*
X75560604Y-52344760D01*
X75555623Y-52347082D01*
X75555622Y-52347083D01*
X75364111Y-52436386D01*
X75364106Y-52436389D01*
X75359124Y-52438712D01*
X75354617Y-52441868D01*
X75354615Y-52441869D01*
X75181530Y-52563064D01*
X75181527Y-52563066D01*
X75177019Y-52566223D01*
X75019823Y-52723419D01*
X75016666Y-52727927D01*
X75016664Y-52727930D01*
X74920171Y-52865737D01*
X74892312Y-52905524D01*
X74889989Y-52910506D01*
X74889986Y-52910511D01*
X74840719Y-53016165D01*
X74793801Y-53069450D01*
X74725524Y-53088911D01*
X74657564Y-53068369D01*
X74612329Y-53016165D01*
X74563177Y-52910759D01*
X74557697Y-52901268D01*
X74527006Y-52857435D01*
X74516529Y-52849060D01*
X74503082Y-52856128D01*
X73828822Y-53530388D01*
X73821208Y-53544332D01*
X73821339Y-53546165D01*
X73825590Y-53552780D01*
X74503803Y-54230993D01*
X74515577Y-54237423D01*
X74527593Y-54228126D01*
X74557697Y-54185132D01*
X74563177Y-54175641D01*
X74612329Y-54070235D01*
X74659247Y-54016950D01*
X74727524Y-53997489D01*
X74795484Y-54018031D01*
X74840719Y-54070235D01*
X74889986Y-54175889D01*
X74889989Y-54175894D01*
X74892312Y-54180876D01*
X74895468Y-54185383D01*
X74895469Y-54185385D01*
X75016374Y-54358055D01*
X75019823Y-54362981D01*
X75177019Y-54520177D01*
X75181527Y-54523334D01*
X75181530Y-54523336D01*
X75182754Y-54524193D01*
X75359123Y-54647688D01*
X75364105Y-54650011D01*
X75364110Y-54650014D01*
X75469173Y-54699005D01*
X75522458Y-54745922D01*
X75541919Y-54814199D01*
X75521377Y-54882159D01*
X75469173Y-54927395D01*
X75364111Y-54976386D01*
X75364106Y-54976389D01*
X75359124Y-54978712D01*
X75354617Y-54981868D01*
X75354615Y-54981869D01*
X75181530Y-55103064D01*
X75181527Y-55103066D01*
X75177019Y-55106223D01*
X75019823Y-55263419D01*
X75016666Y-55267927D01*
X75016664Y-55267930D01*
X74903788Y-55429134D01*
X74892312Y-55445524D01*
X74889989Y-55450506D01*
X74889986Y-55450511D01*
X74840719Y-55556165D01*
X74793801Y-55609450D01*
X74725524Y-55628911D01*
X74657564Y-55608369D01*
X74612329Y-55556165D01*
X74563177Y-55450759D01*
X74557697Y-55441268D01*
X74527006Y-55397435D01*
X74516529Y-55389060D01*
X74503082Y-55396128D01*
X73828822Y-56070388D01*
X73821208Y-56084332D01*
X73821339Y-56086165D01*
X73825590Y-56092780D01*
X74503803Y-56770993D01*
X74515577Y-56777423D01*
X74527593Y-56768126D01*
X74557697Y-56725132D01*
X74563177Y-56715641D01*
X74612329Y-56610235D01*
X74659247Y-56556950D01*
X74727524Y-56537489D01*
X74795484Y-56558031D01*
X74840719Y-56610235D01*
X74889986Y-56715889D01*
X74889989Y-56715894D01*
X74892312Y-56720876D01*
X74895468Y-56725383D01*
X74895469Y-56725385D01*
X74962020Y-56820429D01*
X75019823Y-56902981D01*
X75177019Y-57060177D01*
X75181527Y-57063334D01*
X75181530Y-57063336D01*
X75257295Y-57116387D01*
X75359123Y-57187688D01*
X75364105Y-57190011D01*
X75364110Y-57190014D01*
X75469173Y-57239005D01*
X75522458Y-57285922D01*
X75541919Y-57354199D01*
X75521377Y-57422159D01*
X75469173Y-57467395D01*
X75364111Y-57516386D01*
X75364106Y-57516389D01*
X75359124Y-57518712D01*
X75354617Y-57521868D01*
X75354615Y-57521869D01*
X75181530Y-57643064D01*
X75181527Y-57643066D01*
X75177019Y-57646223D01*
X75019823Y-57803419D01*
X75016666Y-57807927D01*
X75016664Y-57807930D01*
X74895469Y-57981015D01*
X74892312Y-57985524D01*
X74889989Y-57990506D01*
X74889986Y-57990511D01*
X74840719Y-58096165D01*
X74793801Y-58149450D01*
X74725524Y-58168911D01*
X74657564Y-58148369D01*
X74612329Y-58096165D01*
X74563177Y-57990759D01*
X74557697Y-57981268D01*
X74527006Y-57937435D01*
X74516529Y-57929060D01*
X74503082Y-57936128D01*
X73828822Y-58610388D01*
X73821208Y-58624332D01*
X73091156Y-58624332D01*
X73092392Y-58622068D01*
X73092261Y-58620235D01*
X73088010Y-58613620D01*
X72409797Y-57935407D01*
X72398023Y-57928977D01*
X72386007Y-57938274D01*
X72355903Y-57981268D01*
X72350423Y-57990759D01*
X72261155Y-58182193D01*
X72257409Y-58192485D01*
X72202741Y-58396509D01*
X72200838Y-58407304D01*
X72182428Y-58617725D01*
X72182428Y-58628675D01*
X70761700Y-58628675D01*
X70761700Y-57141977D01*
X72762577Y-57141977D01*
X72771874Y-57153993D01*
X72814869Y-57184098D01*
X72824355Y-57189576D01*
X72930357Y-57239005D01*
X72983642Y-57285922D01*
X73003103Y-57354199D01*
X72982561Y-57422159D01*
X72930357Y-57467395D01*
X72824359Y-57516823D01*
X72814868Y-57522303D01*
X72771035Y-57552994D01*
X72762660Y-57563471D01*
X72769728Y-57576918D01*
X73443988Y-58251178D01*
X73457932Y-58258792D01*
X73459765Y-58258661D01*
X73466380Y-58254410D01*
X74144593Y-57576197D01*
X74151023Y-57564423D01*
X74141726Y-57552407D01*
X74098731Y-57522302D01*
X74089245Y-57516824D01*
X73983244Y-57467395D01*
X73929959Y-57420478D01*
X73910498Y-57352200D01*
X73931040Y-57284240D01*
X73983244Y-57239005D01*
X74089245Y-57189576D01*
X74098731Y-57184098D01*
X74142564Y-57153407D01*
X74150939Y-57142929D01*
X74143871Y-57129481D01*
X73469612Y-56455222D01*
X73455668Y-56447608D01*
X73453835Y-56447739D01*
X73447220Y-56451990D01*
X72769007Y-57130203D01*
X72762577Y-57141977D01*
X70761700Y-57141977D01*
X70761700Y-56088675D01*
X72182428Y-56088675D01*
X72200838Y-56299096D01*
X72202741Y-56309891D01*
X72257409Y-56513915D01*
X72261155Y-56524207D01*
X72350423Y-56715641D01*
X72355903Y-56725132D01*
X72386594Y-56768965D01*
X72397071Y-56777340D01*
X72410518Y-56770272D01*
X73084778Y-56096012D01*
X73092392Y-56082068D01*
X73092261Y-56080235D01*
X73088010Y-56073620D01*
X72409797Y-55395407D01*
X72398023Y-55388977D01*
X72386007Y-55398274D01*
X72355903Y-55441268D01*
X72350423Y-55450759D01*
X72261155Y-55642193D01*
X72257409Y-55652485D01*
X72202741Y-55856509D01*
X72200838Y-55867304D01*
X72182428Y-56077725D01*
X72182428Y-56088675D01*
X70761700Y-56088675D01*
X70761700Y-54601977D01*
X72762577Y-54601977D01*
X72771874Y-54613993D01*
X72814869Y-54644098D01*
X72824355Y-54649576D01*
X72930357Y-54699005D01*
X72983642Y-54745922D01*
X73003103Y-54814199D01*
X72982561Y-54882159D01*
X72930357Y-54927395D01*
X72824359Y-54976823D01*
X72814868Y-54982303D01*
X72771035Y-55012994D01*
X72762660Y-55023471D01*
X72769728Y-55036918D01*
X73443988Y-55711178D01*
X73457932Y-55718792D01*
X73459765Y-55718661D01*
X73466380Y-55714410D01*
X74144593Y-55036197D01*
X74151023Y-55024423D01*
X74141726Y-55012407D01*
X74098731Y-54982302D01*
X74089245Y-54976824D01*
X73983244Y-54927395D01*
X73929959Y-54880478D01*
X73910498Y-54812200D01*
X73931040Y-54744240D01*
X73983244Y-54699005D01*
X74089245Y-54649576D01*
X74098731Y-54644098D01*
X74142564Y-54613407D01*
X74150939Y-54602929D01*
X74143871Y-54589481D01*
X73469612Y-53915222D01*
X73455668Y-53907608D01*
X73453835Y-53907739D01*
X73447220Y-53911990D01*
X72769007Y-54590203D01*
X72762577Y-54601977D01*
X70761700Y-54601977D01*
X70761700Y-53548675D01*
X72182428Y-53548675D01*
X72200838Y-53759096D01*
X72202741Y-53769891D01*
X72257409Y-53973915D01*
X72261155Y-53984207D01*
X72350423Y-54175641D01*
X72355903Y-54185132D01*
X72386594Y-54228965D01*
X72397071Y-54237340D01*
X72410518Y-54230272D01*
X73084778Y-53556012D01*
X73092392Y-53542068D01*
X73092261Y-53540235D01*
X73088010Y-53533620D01*
X72409797Y-52855407D01*
X72398023Y-52848977D01*
X72386007Y-52858274D01*
X72355903Y-52901268D01*
X72350423Y-52910759D01*
X72261155Y-53102193D01*
X72257409Y-53112485D01*
X72202741Y-53316509D01*
X72200838Y-53327304D01*
X72182428Y-53537725D01*
X72182428Y-53548675D01*
X70761700Y-53548675D01*
X70761700Y-52483471D01*
X72762660Y-52483471D01*
X72769728Y-52496918D01*
X73443988Y-53171178D01*
X73457932Y-53178792D01*
X73459765Y-53178661D01*
X73466380Y-53174410D01*
X74144593Y-52496197D01*
X74151023Y-52484423D01*
X74141726Y-52472407D01*
X74098731Y-52442302D01*
X74089245Y-52436824D01*
X73897807Y-52347555D01*
X73887515Y-52343809D01*
X73683491Y-52289141D01*
X73672696Y-52287238D01*
X73462275Y-52268828D01*
X73451325Y-52268828D01*
X73240904Y-52287238D01*
X73230109Y-52289141D01*
X73026085Y-52343809D01*
X73015793Y-52347555D01*
X72824359Y-52436823D01*
X72814868Y-52442303D01*
X72771035Y-52472994D01*
X72762660Y-52483471D01*
X70761700Y-52483471D01*
X70761700Y-50936500D01*
X70781702Y-50868379D01*
X70835358Y-50821886D01*
X70887700Y-50810500D01*
X85097339Y-50810500D01*
X85165460Y-50830502D01*
G37*
%TD.AperFunction*%
%TD*%
M02*
