%TF.GenerationSoftware,KiCad,Pcbnew,(6.0.8-1)-1*%
%TF.CreationDate,2023-12-09T20:57:06-06:00*%
%TF.ProjectId,RIO to STEMMA Dual,52494f20-746f-4205-9354-454d4d412044,rev?*%
%TF.SameCoordinates,Original*%
%TF.FileFunction,Legend,Top*%
%TF.FilePolarity,Positive*%
%FSLAX46Y46*%
G04 Gerber Fmt 4.6, Leading zero omitted, Abs format (unit mm)*
G04 Created by KiCad (PCBNEW (6.0.8-1)-1) date 2023-12-09 20:57:06*
%MOMM*%
%LPD*%
G01*
G04 APERTURE LIST*
%ADD10C,0.150000*%
%ADD11C,0.120000*%
G04 APERTURE END LIST*
D10*
X141791990Y-54409733D02*
X141744371Y-54362114D01*
X141649133Y-54219257D01*
X141601514Y-54124019D01*
X141553895Y-53981161D01*
X141506276Y-53743066D01*
X141506276Y-53552590D01*
X141553895Y-53314495D01*
X141601514Y-53171638D01*
X141649133Y-53076400D01*
X141744371Y-52933542D01*
X141791990Y-52885923D01*
X142601514Y-53981161D02*
X142506276Y-54028780D01*
X142315800Y-54028780D01*
X142220561Y-53981161D01*
X142172942Y-53933542D01*
X142125323Y-53838304D01*
X142125323Y-53552590D01*
X142172942Y-53457352D01*
X142220561Y-53409733D01*
X142315800Y-53362114D01*
X142506276Y-53362114D01*
X142601514Y-53409733D01*
X142934847Y-54409733D02*
X142982466Y-54362114D01*
X143077704Y-54219257D01*
X143125323Y-54124019D01*
X143172942Y-53981161D01*
X143220561Y-53743066D01*
X143220561Y-53552590D01*
X143172942Y-53314495D01*
X143125323Y-53171638D01*
X143077704Y-53076400D01*
X142982466Y-52933542D01*
X142934847Y-52885923D01*
X144411038Y-53124019D02*
X144458657Y-53076400D01*
X144553895Y-53028780D01*
X144791990Y-53028780D01*
X144887228Y-53076400D01*
X144934847Y-53124019D01*
X144982466Y-53219257D01*
X144982466Y-53314495D01*
X144934847Y-53457352D01*
X144363419Y-54028780D01*
X144982466Y-54028780D01*
X145601514Y-53028780D02*
X145696752Y-53028780D01*
X145791990Y-53076400D01*
X145839609Y-53124019D01*
X145887228Y-53219257D01*
X145934847Y-53409733D01*
X145934847Y-53647828D01*
X145887228Y-53838304D01*
X145839609Y-53933542D01*
X145791990Y-53981161D01*
X145696752Y-54028780D01*
X145601514Y-54028780D01*
X145506276Y-53981161D01*
X145458657Y-53933542D01*
X145411038Y-53838304D01*
X145363419Y-53647828D01*
X145363419Y-53409733D01*
X145411038Y-53219257D01*
X145458657Y-53124019D01*
X145506276Y-53076400D01*
X145601514Y-53028780D01*
X146315800Y-53124019D02*
X146363419Y-53076400D01*
X146458657Y-53028780D01*
X146696752Y-53028780D01*
X146791990Y-53076400D01*
X146839609Y-53124019D01*
X146887228Y-53219257D01*
X146887228Y-53314495D01*
X146839609Y-53457352D01*
X146268180Y-54028780D01*
X146887228Y-54028780D01*
X147220561Y-53028780D02*
X147839609Y-53028780D01*
X147506276Y-53409733D01*
X147649133Y-53409733D01*
X147744371Y-53457352D01*
X147791990Y-53504971D01*
X147839609Y-53600209D01*
X147839609Y-53838304D01*
X147791990Y-53933542D01*
X147744371Y-53981161D01*
X147649133Y-54028780D01*
X147363419Y-54028780D01*
X147268180Y-53981161D01*
X147220561Y-53933542D01*
X148982466Y-53981161D02*
X149125323Y-54028780D01*
X149363419Y-54028780D01*
X149458657Y-53981161D01*
X149506276Y-53933542D01*
X149553895Y-53838304D01*
X149553895Y-53743066D01*
X149506276Y-53647828D01*
X149458657Y-53600209D01*
X149363419Y-53552590D01*
X149172942Y-53504971D01*
X149077704Y-53457352D01*
X149030085Y-53409733D01*
X148982466Y-53314495D01*
X148982466Y-53219257D01*
X149030085Y-53124019D01*
X149077704Y-53076400D01*
X149172942Y-53028780D01*
X149411038Y-53028780D01*
X149553895Y-53076400D01*
X149982466Y-54028780D02*
X149982466Y-53028780D01*
X149982466Y-53504971D02*
X150553895Y-53504971D01*
X150553895Y-54028780D02*
X150553895Y-53028780D01*
X151601514Y-54028780D02*
X151268180Y-53552590D01*
X151030085Y-54028780D02*
X151030085Y-53028780D01*
X151411038Y-53028780D01*
X151506276Y-53076400D01*
X151553895Y-53124019D01*
X151601514Y-53219257D01*
X151601514Y-53362114D01*
X151553895Y-53457352D01*
X151506276Y-53504971D01*
X151411038Y-53552590D01*
X151030085Y-53552590D01*
X152030085Y-54028780D02*
X152030085Y-53028780D01*
X152363419Y-53743066D01*
X152696752Y-53028780D01*
X152696752Y-54028780D01*
X154744371Y-54028780D02*
X154696752Y-54028780D01*
X154601514Y-53981161D01*
X154458657Y-53838304D01*
X154220561Y-53552590D01*
X154125323Y-53409733D01*
X154077704Y-53266876D01*
X154077704Y-53171638D01*
X154125323Y-53076400D01*
X154220561Y-53028780D01*
X154268180Y-53028780D01*
X154363419Y-53076400D01*
X154411038Y-53171638D01*
X154411038Y-53219257D01*
X154363419Y-53314495D01*
X154315800Y-53362114D01*
X154030085Y-53552590D01*
X153982466Y-53600209D01*
X153934847Y-53695447D01*
X153934847Y-53838304D01*
X153982466Y-53933542D01*
X154030085Y-53981161D01*
X154125323Y-54028780D01*
X154268180Y-54028780D01*
X154363419Y-53981161D01*
X154411038Y-53933542D01*
X154553895Y-53743066D01*
X154601514Y-53600209D01*
X154601514Y-53504971D01*
X156268180Y-53504971D02*
X155934847Y-53504971D01*
X155934847Y-54028780D02*
X155934847Y-53028780D01*
X156411038Y-53028780D01*
X157363419Y-54028780D02*
X157030085Y-53552590D01*
X156791990Y-54028780D02*
X156791990Y-53028780D01*
X157172942Y-53028780D01*
X157268180Y-53076400D01*
X157315800Y-53124019D01*
X157363419Y-53219257D01*
X157363419Y-53362114D01*
X157315800Y-53457352D01*
X157268180Y-53504971D01*
X157172942Y-53552590D01*
X156791990Y-53552590D01*
X158363419Y-53933542D02*
X158315800Y-53981161D01*
X158172942Y-54028780D01*
X158077704Y-54028780D01*
X157934847Y-53981161D01*
X157839609Y-53885923D01*
X157791990Y-53790685D01*
X157744371Y-53600209D01*
X157744371Y-53457352D01*
X157791990Y-53266876D01*
X157839609Y-53171638D01*
X157934847Y-53076400D01*
X158077704Y-53028780D01*
X158172942Y-53028780D01*
X158315800Y-53076400D01*
X158363419Y-53124019D01*
X158744371Y-53124019D02*
X158791990Y-53076400D01*
X158887228Y-53028780D01*
X159125323Y-53028780D01*
X159220561Y-53076400D01*
X159268180Y-53124019D01*
X159315800Y-53219257D01*
X159315800Y-53314495D01*
X159268180Y-53457352D01*
X158696752Y-54028780D01*
X159315800Y-54028780D01*
X160172942Y-53362114D02*
X160172942Y-54028780D01*
X159934847Y-52981161D02*
X159696752Y-53695447D01*
X160315800Y-53695447D01*
X161125323Y-53028780D02*
X160934847Y-53028780D01*
X160839609Y-53076400D01*
X160791990Y-53124019D01*
X160696752Y-53266876D01*
X160649133Y-53457352D01*
X160649133Y-53838304D01*
X160696752Y-53933542D01*
X160744371Y-53981161D01*
X160839609Y-54028780D01*
X161030085Y-54028780D01*
X161125323Y-53981161D01*
X161172942Y-53933542D01*
X161220561Y-53838304D01*
X161220561Y-53600209D01*
X161172942Y-53504971D01*
X161125323Y-53457352D01*
X161030085Y-53409733D01*
X160839609Y-53409733D01*
X160744371Y-53457352D01*
X160696752Y-53504971D01*
X160649133Y-53600209D01*
X161791990Y-53457352D02*
X161696752Y-53409733D01*
X161649133Y-53362114D01*
X161601514Y-53266876D01*
X161601514Y-53219257D01*
X161649133Y-53124019D01*
X161696752Y-53076400D01*
X161791990Y-53028780D01*
X161982466Y-53028780D01*
X162077704Y-53076400D01*
X162125323Y-53124019D01*
X162172942Y-53219257D01*
X162172942Y-53266876D01*
X162125323Y-53362114D01*
X162077704Y-53409733D01*
X161982466Y-53457352D01*
X161791990Y-53457352D01*
X161696752Y-53504971D01*
X161649133Y-53552590D01*
X161601514Y-53647828D01*
X161601514Y-53838304D01*
X161649133Y-53933542D01*
X161696752Y-53981161D01*
X161791990Y-54028780D01*
X161982466Y-54028780D01*
X162077704Y-53981161D01*
X162125323Y-53933542D01*
X162172942Y-53838304D01*
X162172942Y-53647828D01*
X162125323Y-53552590D01*
X162077704Y-53504971D01*
X161982466Y-53457352D01*
X144625323Y-55353066D02*
X145101514Y-55353066D01*
X144530085Y-55638780D02*
X144863419Y-54638780D01*
X145196752Y-55638780D01*
X145672942Y-55638780D02*
X145577704Y-55591161D01*
X145530085Y-55495923D01*
X145530085Y-54638780D01*
X146196752Y-55638780D02*
X146101514Y-55591161D01*
X146053895Y-55495923D01*
X146053895Y-54638780D01*
X147911038Y-55638780D02*
X147577704Y-55162590D01*
X147339609Y-55638780D02*
X147339609Y-54638780D01*
X147720561Y-54638780D01*
X147815800Y-54686400D01*
X147863419Y-54734019D01*
X147911038Y-54829257D01*
X147911038Y-54972114D01*
X147863419Y-55067352D01*
X147815800Y-55114971D01*
X147720561Y-55162590D01*
X147339609Y-55162590D01*
X148339609Y-55638780D02*
X148339609Y-54972114D01*
X148339609Y-54638780D02*
X148291990Y-54686400D01*
X148339609Y-54734019D01*
X148387228Y-54686400D01*
X148339609Y-54638780D01*
X148339609Y-54734019D01*
X149244371Y-54972114D02*
X149244371Y-55781638D01*
X149196752Y-55876876D01*
X149149133Y-55924495D01*
X149053895Y-55972114D01*
X148911038Y-55972114D01*
X148815800Y-55924495D01*
X149244371Y-55591161D02*
X149149133Y-55638780D01*
X148958657Y-55638780D01*
X148863419Y-55591161D01*
X148815800Y-55543542D01*
X148768180Y-55448304D01*
X148768180Y-55162590D01*
X148815800Y-55067352D01*
X148863419Y-55019733D01*
X148958657Y-54972114D01*
X149149133Y-54972114D01*
X149244371Y-55019733D01*
X149720561Y-55638780D02*
X149720561Y-54638780D01*
X150149133Y-55638780D02*
X150149133Y-55114971D01*
X150101514Y-55019733D01*
X150006276Y-54972114D01*
X149863419Y-54972114D01*
X149768180Y-55019733D01*
X149720561Y-55067352D01*
X150482466Y-54972114D02*
X150863419Y-54972114D01*
X150625323Y-54638780D02*
X150625323Y-55495923D01*
X150672942Y-55591161D01*
X150768180Y-55638780D01*
X150863419Y-55638780D01*
X151149133Y-55591161D02*
X151244371Y-55638780D01*
X151434847Y-55638780D01*
X151530085Y-55591161D01*
X151577704Y-55495923D01*
X151577704Y-55448304D01*
X151530085Y-55353066D01*
X151434847Y-55305447D01*
X151291990Y-55305447D01*
X151196752Y-55257828D01*
X151149133Y-55162590D01*
X151149133Y-55114971D01*
X151196752Y-55019733D01*
X151291990Y-54972114D01*
X151434847Y-54972114D01*
X151530085Y-55019733D01*
X153339609Y-55638780D02*
X153006276Y-55162590D01*
X152768180Y-55638780D02*
X152768180Y-54638780D01*
X153149133Y-54638780D01*
X153244371Y-54686400D01*
X153291990Y-54734019D01*
X153339609Y-54829257D01*
X153339609Y-54972114D01*
X153291990Y-55067352D01*
X153244371Y-55114971D01*
X153149133Y-55162590D01*
X152768180Y-55162590D01*
X154149133Y-55591161D02*
X154053895Y-55638780D01*
X153863419Y-55638780D01*
X153768180Y-55591161D01*
X153720561Y-55495923D01*
X153720561Y-55114971D01*
X153768180Y-55019733D01*
X153863419Y-54972114D01*
X154053895Y-54972114D01*
X154149133Y-55019733D01*
X154196752Y-55114971D01*
X154196752Y-55210209D01*
X153720561Y-55305447D01*
X154577704Y-55591161D02*
X154672942Y-55638780D01*
X154863419Y-55638780D01*
X154958657Y-55591161D01*
X155006276Y-55495923D01*
X155006276Y-55448304D01*
X154958657Y-55353066D01*
X154863419Y-55305447D01*
X154720561Y-55305447D01*
X154625323Y-55257828D01*
X154577704Y-55162590D01*
X154577704Y-55114971D01*
X154625323Y-55019733D01*
X154720561Y-54972114D01*
X154863419Y-54972114D01*
X154958657Y-55019733D01*
X155815800Y-55591161D02*
X155720561Y-55638780D01*
X155530085Y-55638780D01*
X155434847Y-55591161D01*
X155387228Y-55495923D01*
X155387228Y-55114971D01*
X155434847Y-55019733D01*
X155530085Y-54972114D01*
X155720561Y-54972114D01*
X155815800Y-55019733D01*
X155863419Y-55114971D01*
X155863419Y-55210209D01*
X155387228Y-55305447D01*
X156291990Y-55638780D02*
X156291990Y-54972114D01*
X156291990Y-55162590D02*
X156339609Y-55067352D01*
X156387228Y-55019733D01*
X156482466Y-54972114D01*
X156577704Y-54972114D01*
X156815800Y-54972114D02*
X157053895Y-55638780D01*
X157291990Y-54972114D01*
X158053895Y-55591161D02*
X157958657Y-55638780D01*
X157768180Y-55638780D01*
X157672942Y-55591161D01*
X157625323Y-55495923D01*
X157625323Y-55114971D01*
X157672942Y-55019733D01*
X157768180Y-54972114D01*
X157958657Y-54972114D01*
X158053895Y-55019733D01*
X158101514Y-55114971D01*
X158101514Y-55210209D01*
X157625323Y-55305447D01*
X158958657Y-55638780D02*
X158958657Y-54638780D01*
X158958657Y-55591161D02*
X158863419Y-55638780D01*
X158672942Y-55638780D01*
X158577704Y-55591161D01*
X158530085Y-55543542D01*
X158482466Y-55448304D01*
X158482466Y-55162590D01*
X158530085Y-55067352D01*
X158577704Y-55019733D01*
X158672942Y-54972114D01*
X158863419Y-54972114D01*
X158958657Y-55019733D01*
X125638371Y-53124019D02*
X125685990Y-53076400D01*
X125781228Y-53028780D01*
X126019323Y-53028780D01*
X126114561Y-53076400D01*
X126162180Y-53124019D01*
X126209800Y-53219257D01*
X126209800Y-53314495D01*
X126162180Y-53457352D01*
X125590752Y-54028780D01*
X126209800Y-54028780D01*
X126638371Y-53647828D02*
X127400276Y-53647828D01*
X128305038Y-53362114D02*
X128305038Y-54028780D01*
X128066942Y-52981161D02*
X127828847Y-53695447D01*
X128447895Y-53695447D01*
X128828847Y-53647828D02*
X129590752Y-53647828D01*
X130495514Y-53028780D02*
X130305038Y-53028780D01*
X130209800Y-53076400D01*
X130162180Y-53124019D01*
X130066942Y-53266876D01*
X130019323Y-53457352D01*
X130019323Y-53838304D01*
X130066942Y-53933542D01*
X130114561Y-53981161D01*
X130209800Y-54028780D01*
X130400276Y-54028780D01*
X130495514Y-53981161D01*
X130543133Y-53933542D01*
X130590752Y-53838304D01*
X130590752Y-53600209D01*
X130543133Y-53504971D01*
X130495514Y-53457352D01*
X130400276Y-53409733D01*
X130209800Y-53409733D01*
X130114561Y-53457352D01*
X130066942Y-53504971D01*
X130019323Y-53600209D01*
X131019323Y-53647828D02*
X131781228Y-53647828D01*
X132400276Y-53457352D02*
X132305038Y-53409733D01*
X132257419Y-53362114D01*
X132209800Y-53266876D01*
X132209800Y-53219257D01*
X132257419Y-53124019D01*
X132305038Y-53076400D01*
X132400276Y-53028780D01*
X132590752Y-53028780D01*
X132685990Y-53076400D01*
X132733609Y-53124019D01*
X132781228Y-53219257D01*
X132781228Y-53266876D01*
X132733609Y-53362114D01*
X132685990Y-53409733D01*
X132590752Y-53457352D01*
X132400276Y-53457352D01*
X132305038Y-53504971D01*
X132257419Y-53552590D01*
X132209800Y-53647828D01*
X132209800Y-53838304D01*
X132257419Y-53933542D01*
X132305038Y-53981161D01*
X132400276Y-54028780D01*
X132590752Y-54028780D01*
X132685990Y-53981161D01*
X132733609Y-53933542D01*
X132781228Y-53838304D01*
X132781228Y-53647828D01*
X132733609Y-53552590D01*
X132685990Y-53504971D01*
X132590752Y-53457352D01*
X120519323Y-54638780D02*
X120757419Y-55638780D01*
X120947895Y-54924495D01*
X121138371Y-55638780D01*
X121376466Y-54638780D01*
X121757419Y-55638780D02*
X121757419Y-54638780D01*
X122185990Y-55638780D02*
X122185990Y-55114971D01*
X122138371Y-55019733D01*
X122043133Y-54972114D01*
X121900276Y-54972114D01*
X121805038Y-55019733D01*
X121757419Y-55067352D01*
X122805038Y-55638780D02*
X122709800Y-55591161D01*
X122662180Y-55543542D01*
X122614561Y-55448304D01*
X122614561Y-55162590D01*
X122662180Y-55067352D01*
X122709800Y-55019733D01*
X122805038Y-54972114D01*
X122947895Y-54972114D01*
X123043133Y-55019733D01*
X123090752Y-55067352D01*
X123138371Y-55162590D01*
X123138371Y-55448304D01*
X123090752Y-55543542D01*
X123043133Y-55591161D01*
X122947895Y-55638780D01*
X122805038Y-55638780D01*
X124757419Y-55638780D02*
X124757419Y-54638780D01*
X124757419Y-55591161D02*
X124662180Y-55638780D01*
X124471704Y-55638780D01*
X124376466Y-55591161D01*
X124328847Y-55543542D01*
X124281228Y-55448304D01*
X124281228Y-55162590D01*
X124328847Y-55067352D01*
X124376466Y-55019733D01*
X124471704Y-54972114D01*
X124662180Y-54972114D01*
X124757419Y-55019733D01*
X125376466Y-55638780D02*
X125281228Y-55591161D01*
X125233609Y-55543542D01*
X125185990Y-55448304D01*
X125185990Y-55162590D01*
X125233609Y-55067352D01*
X125281228Y-55019733D01*
X125376466Y-54972114D01*
X125519323Y-54972114D01*
X125614561Y-55019733D01*
X125662180Y-55067352D01*
X125709800Y-55162590D01*
X125709800Y-55448304D01*
X125662180Y-55543542D01*
X125614561Y-55591161D01*
X125519323Y-55638780D01*
X125376466Y-55638780D01*
X126805038Y-54972114D02*
X126995514Y-55638780D01*
X127185990Y-55162590D01*
X127376466Y-55638780D01*
X127566942Y-54972114D01*
X128328847Y-55591161D02*
X128233609Y-55638780D01*
X128043133Y-55638780D01*
X127947895Y-55591161D01*
X127900276Y-55495923D01*
X127900276Y-55114971D01*
X127947895Y-55019733D01*
X128043133Y-54972114D01*
X128233609Y-54972114D01*
X128328847Y-55019733D01*
X128376466Y-55114971D01*
X128376466Y-55210209D01*
X127900276Y-55305447D01*
X129995514Y-55638780D02*
X129995514Y-55114971D01*
X129947895Y-55019733D01*
X129852657Y-54972114D01*
X129662180Y-54972114D01*
X129566942Y-55019733D01*
X129995514Y-55591161D02*
X129900276Y-55638780D01*
X129662180Y-55638780D01*
X129566942Y-55591161D01*
X129519323Y-55495923D01*
X129519323Y-55400685D01*
X129566942Y-55305447D01*
X129662180Y-55257828D01*
X129900276Y-55257828D01*
X129995514Y-55210209D01*
X130471704Y-54972114D02*
X130471704Y-55972114D01*
X130471704Y-55019733D02*
X130566942Y-54972114D01*
X130757419Y-54972114D01*
X130852657Y-55019733D01*
X130900276Y-55067352D01*
X130947895Y-55162590D01*
X130947895Y-55448304D01*
X130900276Y-55543542D01*
X130852657Y-55591161D01*
X130757419Y-55638780D01*
X130566942Y-55638780D01*
X130471704Y-55591161D01*
X131376466Y-54972114D02*
X131376466Y-55972114D01*
X131376466Y-55019733D02*
X131471704Y-54972114D01*
X131662180Y-54972114D01*
X131757419Y-55019733D01*
X131805038Y-55067352D01*
X131852657Y-55162590D01*
X131852657Y-55448304D01*
X131805038Y-55543542D01*
X131757419Y-55591161D01*
X131662180Y-55638780D01*
X131471704Y-55638780D01*
X131376466Y-55591161D01*
X132281228Y-55638780D02*
X132281228Y-54972114D01*
X132281228Y-55162590D02*
X132328847Y-55067352D01*
X132376466Y-55019733D01*
X132471704Y-54972114D01*
X132566942Y-54972114D01*
X133281228Y-55591161D02*
X133185990Y-55638780D01*
X132995514Y-55638780D01*
X132900276Y-55591161D01*
X132852657Y-55495923D01*
X132852657Y-55114971D01*
X132900276Y-55019733D01*
X132995514Y-54972114D01*
X133185990Y-54972114D01*
X133281228Y-55019733D01*
X133328847Y-55114971D01*
X133328847Y-55210209D01*
X132852657Y-55305447D01*
X134185990Y-55591161D02*
X134090752Y-55638780D01*
X133900276Y-55638780D01*
X133805038Y-55591161D01*
X133757419Y-55543542D01*
X133709800Y-55448304D01*
X133709800Y-55162590D01*
X133757419Y-55067352D01*
X133805038Y-55019733D01*
X133900276Y-54972114D01*
X134090752Y-54972114D01*
X134185990Y-55019733D01*
X134614561Y-55638780D02*
X134614561Y-54972114D01*
X134614561Y-54638780D02*
X134566942Y-54686400D01*
X134614561Y-54734019D01*
X134662180Y-54686400D01*
X134614561Y-54638780D01*
X134614561Y-54734019D01*
X135519323Y-55638780D02*
X135519323Y-55114971D01*
X135471704Y-55019733D01*
X135376466Y-54972114D01*
X135185990Y-54972114D01*
X135090752Y-55019733D01*
X135519323Y-55591161D02*
X135424085Y-55638780D01*
X135185990Y-55638780D01*
X135090752Y-55591161D01*
X135043133Y-55495923D01*
X135043133Y-55400685D01*
X135090752Y-55305447D01*
X135185990Y-55257828D01*
X135424085Y-55257828D01*
X135519323Y-55210209D01*
X135852657Y-54972114D02*
X136233609Y-54972114D01*
X135995514Y-54638780D02*
X135995514Y-55495923D01*
X136043133Y-55591161D01*
X136138371Y-55638780D01*
X136233609Y-55638780D01*
X136947895Y-55591161D02*
X136852657Y-55638780D01*
X136662180Y-55638780D01*
X136566942Y-55591161D01*
X136519323Y-55495923D01*
X136519323Y-55114971D01*
X136566942Y-55019733D01*
X136662180Y-54972114D01*
X136852657Y-54972114D01*
X136947895Y-55019733D01*
X136995514Y-55114971D01*
X136995514Y-55210209D01*
X136519323Y-55305447D01*
X137566942Y-55543542D02*
X137614561Y-55591161D01*
X137566942Y-55638780D01*
X137519323Y-55591161D01*
X137566942Y-55543542D01*
X137566942Y-55638780D01*
X137376466Y-54686400D02*
X137471704Y-54638780D01*
X137709800Y-54638780D01*
X137805038Y-54686400D01*
X137852657Y-54781638D01*
X137852657Y-54876876D01*
X137805038Y-54972114D01*
X137757419Y-55019733D01*
X137662180Y-55067352D01*
X137614561Y-55114971D01*
X137566942Y-55210209D01*
X137566942Y-55257828D01*
%TO.C,X2*%
X90833676Y-59574180D02*
X91500342Y-60574180D01*
X91500342Y-59574180D02*
X90833676Y-60574180D01*
X91833676Y-59669419D02*
X91881295Y-59621800D01*
X91976533Y-59574180D01*
X92214628Y-59574180D01*
X92309866Y-59621800D01*
X92357485Y-59669419D01*
X92405104Y-59764657D01*
X92405104Y-59859895D01*
X92357485Y-60002752D01*
X91786057Y-60574180D01*
X92405104Y-60574180D01*
%TO.C,X3*%
X90859076Y-56297580D02*
X91525742Y-57297580D01*
X91525742Y-56297580D02*
X90859076Y-57297580D01*
X91811457Y-56297580D02*
X92430504Y-56297580D01*
X92097171Y-56678533D01*
X92240028Y-56678533D01*
X92335266Y-56726152D01*
X92382885Y-56773771D01*
X92430504Y-56869009D01*
X92430504Y-57107104D01*
X92382885Y-57202342D01*
X92335266Y-57249961D01*
X92240028Y-57297580D01*
X91954314Y-57297580D01*
X91859076Y-57249961D01*
X91811457Y-57202342D01*
%TO.C,X1*%
X71072476Y-60107580D02*
X71739142Y-61107580D01*
X71739142Y-60107580D02*
X71072476Y-61107580D01*
X72643904Y-61107580D02*
X72072476Y-61107580D01*
X72358190Y-61107580D02*
X72358190Y-60107580D01*
X72262952Y-60250438D01*
X72167714Y-60345676D01*
X72072476Y-60393295D01*
X79727276Y-50928438D02*
X79584419Y-50880819D01*
X79346323Y-50880819D01*
X79251085Y-50928438D01*
X79203466Y-50976057D01*
X79155847Y-51071295D01*
X79155847Y-51166533D01*
X79203466Y-51261771D01*
X79251085Y-51309390D01*
X79346323Y-51357009D01*
X79536800Y-51404628D01*
X79632038Y-51452247D01*
X79679657Y-51499866D01*
X79727276Y-51595104D01*
X79727276Y-51690342D01*
X79679657Y-51785580D01*
X79632038Y-51833200D01*
X79536800Y-51880819D01*
X79298704Y-51880819D01*
X79155847Y-51833200D01*
X78155847Y-50976057D02*
X78203466Y-50928438D01*
X78346323Y-50880819D01*
X78441561Y-50880819D01*
X78584419Y-50928438D01*
X78679657Y-51023676D01*
X78727276Y-51118914D01*
X78774895Y-51309390D01*
X78774895Y-51452247D01*
X78727276Y-51642723D01*
X78679657Y-51737961D01*
X78584419Y-51833200D01*
X78441561Y-51880819D01*
X78346323Y-51880819D01*
X78203466Y-51833200D01*
X78155847Y-51785580D01*
X77251085Y-50880819D02*
X77727276Y-50880819D01*
X77727276Y-51880819D01*
X77234895Y-61130819D02*
X76615847Y-61130819D01*
X76949180Y-60749866D01*
X76806323Y-60749866D01*
X76711085Y-60702247D01*
X76663466Y-60654628D01*
X76615847Y-60559390D01*
X76615847Y-60321295D01*
X76663466Y-60226057D01*
X76711085Y-60178438D01*
X76806323Y-60130819D01*
X77092038Y-60130819D01*
X77187276Y-60178438D01*
X77234895Y-60226057D01*
X76330133Y-61130819D02*
X75996800Y-60130819D01*
X75663466Y-61130819D01*
X75425371Y-61130819D02*
X74806323Y-61130819D01*
X75139657Y-60749866D01*
X74996800Y-60749866D01*
X74901561Y-60702247D01*
X74853942Y-60654628D01*
X74806323Y-60559390D01*
X74806323Y-60321295D01*
X74853942Y-60226057D01*
X74901561Y-60178438D01*
X74996800Y-60130819D01*
X75282514Y-60130819D01*
X75377752Y-60178438D01*
X75425371Y-60226057D01*
X74218704Y-51833200D02*
X74313942Y-51880819D01*
X74456800Y-51880819D01*
X74599657Y-51833200D01*
X74694895Y-51737961D01*
X74742514Y-51642723D01*
X74790133Y-51452247D01*
X74790133Y-51309390D01*
X74742514Y-51118914D01*
X74694895Y-51023676D01*
X74599657Y-50928438D01*
X74456800Y-50880819D01*
X74361561Y-50880819D01*
X74218704Y-50928438D01*
X74171085Y-50976057D01*
X74171085Y-51309390D01*
X74361561Y-51309390D01*
X73742514Y-50880819D02*
X73742514Y-51880819D01*
X73171085Y-50880819D01*
X73171085Y-51880819D01*
X72694895Y-50880819D02*
X72694895Y-51880819D01*
X72456800Y-51880819D01*
X72313942Y-51833200D01*
X72218704Y-51737961D01*
X72171085Y-51642723D01*
X72123466Y-51452247D01*
X72123466Y-51309390D01*
X72171085Y-51118914D01*
X72218704Y-51023676D01*
X72313942Y-50928438D01*
X72456800Y-50880819D01*
X72694895Y-50880819D01*
X82291085Y-60178438D02*
X82148228Y-60130819D01*
X81910133Y-60130819D01*
X81814895Y-60178438D01*
X81767276Y-60226057D01*
X81719657Y-60321295D01*
X81719657Y-60416533D01*
X81767276Y-60511771D01*
X81814895Y-60559390D01*
X81910133Y-60607009D01*
X82100609Y-60654628D01*
X82195847Y-60702247D01*
X82243466Y-60749866D01*
X82291085Y-60845104D01*
X82291085Y-60940342D01*
X82243466Y-61035580D01*
X82195847Y-61083200D01*
X82100609Y-61130819D01*
X81862514Y-61130819D01*
X81719657Y-61083200D01*
X81291085Y-60130819D02*
X81291085Y-61130819D01*
X81052990Y-61130819D01*
X80910133Y-61083200D01*
X80814895Y-60987961D01*
X80767276Y-60892723D01*
X80719657Y-60702247D01*
X80719657Y-60559390D01*
X80767276Y-60368914D01*
X80814895Y-60273676D01*
X80910133Y-60178438D01*
X81052990Y-60130819D01*
X81291085Y-60130819D01*
X80338704Y-60416533D02*
X79862514Y-60416533D01*
X80433942Y-60130819D02*
X80100609Y-61130819D01*
X79767276Y-60130819D01*
D11*
%TO.C,X2*%
X91756000Y-60851400D02*
X90706000Y-60851400D01*
X85536000Y-60851400D02*
X86586000Y-60851400D01*
X91756000Y-63351400D02*
X91756000Y-60851400D01*
X86706000Y-65321400D02*
X90586000Y-65321400D01*
X86586000Y-60851400D02*
X86586000Y-59861400D01*
X85536000Y-63351400D02*
X85536000Y-60851400D01*
%TO.C,X3*%
X90586000Y-51569400D02*
X86706000Y-51569400D01*
X91756000Y-53539400D02*
X91756000Y-56039400D01*
X91756000Y-56039400D02*
X90706000Y-56039400D01*
X90706000Y-56039400D02*
X90706000Y-57029400D01*
X85536000Y-53539400D02*
X85536000Y-56039400D01*
X85536000Y-56039400D02*
X86586000Y-56039400D01*
%TO.C,G\u002A\u002A\u002A*%
G36*
X105316929Y-52655668D02*
G01*
X105431394Y-52660596D01*
X105498637Y-52670448D01*
X105512140Y-52683106D01*
X105471915Y-52700681D01*
X105389246Y-52712196D01*
X105318573Y-52714816D01*
X105187059Y-52721385D01*
X105007259Y-52739857D01*
X104792796Y-52768380D01*
X104557294Y-52805105D01*
X104314378Y-52848180D01*
X104258856Y-52858797D01*
X104124632Y-52884525D01*
X104036859Y-52897698D01*
X103979574Y-52897041D01*
X103936819Y-52881275D01*
X103892633Y-52849123D01*
X103866068Y-52827364D01*
X103773805Y-52751930D01*
X103913634Y-52735452D01*
X104118592Y-52713775D01*
X104336345Y-52695057D01*
X104558317Y-52679577D01*
X104775935Y-52667618D01*
X104980625Y-52659459D01*
X105163814Y-52655382D01*
X105316929Y-52655668D01*
G37*
G36*
X100945847Y-54920825D02*
G01*
X101016309Y-54931919D01*
X101132445Y-54944052D01*
X101276568Y-54955564D01*
X101394195Y-54962890D01*
X101550351Y-54972400D01*
X101657019Y-54982954D01*
X101728093Y-54997875D01*
X101777467Y-55020484D01*
X101819032Y-55054102D01*
X101833021Y-55067795D01*
X101883176Y-55130634D01*
X101900402Y-55179223D01*
X101898095Y-55186709D01*
X101855790Y-55204830D01*
X101768436Y-55214026D01*
X101653850Y-55213729D01*
X101529850Y-55203374D01*
X101500779Y-55199346D01*
X101324609Y-55160772D01*
X101156422Y-55102721D01*
X101017844Y-55033472D01*
X100961029Y-54992711D01*
X100850716Y-54897976D01*
X100945847Y-54920825D01*
G37*
G36*
X104576633Y-53015691D02*
G01*
X104714130Y-53021028D01*
X104835021Y-53029973D01*
X104923347Y-53042158D01*
X104961921Y-53055703D01*
X104972423Y-53077983D01*
X104941599Y-53090319D01*
X104860256Y-53095171D01*
X104812926Y-53095566D01*
X104672546Y-53099051D01*
X104512584Y-53107772D01*
X104414653Y-53115591D01*
X104284032Y-53123018D01*
X104207717Y-53114654D01*
X104181578Y-53097401D01*
X104172940Y-53050026D01*
X104179755Y-53037738D01*
X104224091Y-53024983D01*
X104315654Y-53017302D01*
X104438488Y-53014326D01*
X104576633Y-53015691D01*
G37*
G36*
X101883519Y-53274701D02*
G01*
X102069995Y-53059387D01*
X102299213Y-52885263D01*
X102425925Y-52817153D01*
X102681294Y-52728534D01*
X102953212Y-52691055D01*
X103229071Y-52702999D01*
X103496265Y-52762647D01*
X103742188Y-52868281D01*
X103954234Y-53018186D01*
X103963558Y-53026662D01*
X104173232Y-53259062D01*
X104325060Y-53515249D01*
X104417815Y-53791249D01*
X104450271Y-54083088D01*
X104421202Y-54386792D01*
X104405447Y-54458886D01*
X104312248Y-54715746D01*
X104168251Y-54944936D01*
X103981824Y-55141620D01*
X103761336Y-55300961D01*
X103515158Y-55418120D01*
X103251659Y-55488261D01*
X102979207Y-55506547D01*
X102706173Y-55468140D01*
X102674062Y-55459574D01*
X102378824Y-55348164D01*
X102129584Y-55194023D01*
X101928249Y-54999644D01*
X101776728Y-54767521D01*
X101676929Y-54500145D01*
X101630762Y-54200011D01*
X101627620Y-54092555D01*
X101657623Y-53798807D01*
X101661042Y-53787980D01*
X102431344Y-53787980D01*
X102438241Y-53852417D01*
X102449884Y-53869587D01*
X102510146Y-53911655D01*
X102547221Y-53919810D01*
X102612823Y-53896936D01*
X102644558Y-53869587D01*
X102666394Y-53805198D01*
X102637832Y-53747516D01*
X102570703Y-53715485D01*
X102547221Y-53713693D01*
X102471614Y-53735422D01*
X102431344Y-53787980D01*
X101661042Y-53787980D01*
X101744492Y-53523682D01*
X101883519Y-53274701D01*
G37*
G36*
X105031034Y-52243784D02*
G01*
X105352754Y-52263870D01*
X105632038Y-52299842D01*
X105771560Y-52324276D01*
X105886138Y-52346121D01*
X105962429Y-52362720D01*
X105987077Y-52370570D01*
X105964792Y-52375272D01*
X105893818Y-52375548D01*
X105788732Y-52371403D01*
X105772048Y-52370466D01*
X105529891Y-52367335D01*
X105244113Y-52381639D01*
X104931484Y-52411453D01*
X104608776Y-52454851D01*
X104292761Y-52509907D01*
X104005897Y-52573273D01*
X103891944Y-52601011D01*
X103790395Y-52624592D01*
X103747233Y-52633948D01*
X103667635Y-52652665D01*
X103620391Y-52666783D01*
X103559079Y-52664673D01*
X103530242Y-52651548D01*
X103462882Y-52627649D01*
X103397344Y-52620171D01*
X103318288Y-52612021D01*
X103294575Y-52590575D01*
X103320164Y-52558480D01*
X103389016Y-52518386D01*
X103495090Y-52472940D01*
X103632345Y-52424791D01*
X103794741Y-52376587D01*
X103976238Y-52330978D01*
X104132403Y-52297890D01*
X104399695Y-52260766D01*
X104706293Y-52242740D01*
X105031034Y-52243784D01*
G37*
G36*
X104290670Y-55021745D02*
G01*
X104311475Y-55073520D01*
X104346784Y-55119183D01*
X104433179Y-55212936D01*
X104517421Y-55313542D01*
X104607688Y-55431873D01*
X104712160Y-55578798D01*
X104839017Y-55765187D01*
X104887906Y-55838287D01*
X104987650Y-55986006D01*
X105076612Y-56114187D01*
X105148381Y-56213877D01*
X105196545Y-56276117D01*
X105213233Y-56292802D01*
X105240690Y-56329199D01*
X105242601Y-56344413D01*
X105264861Y-56397594D01*
X105290167Y-56424929D01*
X105330030Y-56470704D01*
X105337733Y-56492232D01*
X105307970Y-56502427D01*
X105226457Y-56510802D01*
X105104853Y-56516612D01*
X104954818Y-56519108D01*
X104917570Y-56519136D01*
X104497408Y-56518211D01*
X104354711Y-56323157D01*
X104283961Y-56224920D01*
X104228138Y-56144583D01*
X104197865Y-56097485D01*
X104196159Y-56094181D01*
X104170578Y-56049289D01*
X104123205Y-55972981D01*
X104093101Y-55926121D01*
X104043085Y-55845951D01*
X104011541Y-55789167D01*
X104005897Y-55774213D01*
X103989315Y-55740089D01*
X103949465Y-55677156D01*
X103901188Y-55607300D01*
X103859329Y-55552402D01*
X103845032Y-55537039D01*
X103819451Y-55496553D01*
X103807151Y-55467674D01*
X103811325Y-55423512D01*
X103861998Y-55373867D01*
X103925417Y-55333304D01*
X104030000Y-55258407D01*
X104136159Y-55161754D01*
X104176723Y-55117275D01*
X104237604Y-55051002D01*
X104278988Y-55018072D01*
X104290670Y-55021745D01*
G37*
G36*
X101497243Y-54169958D02*
G01*
X101518151Y-54240438D01*
X101530630Y-54332333D01*
X101532056Y-54370607D01*
X101544937Y-54461238D01*
X101575369Y-54559558D01*
X101575913Y-54560869D01*
X101617474Y-54667860D01*
X101652434Y-54768062D01*
X101685532Y-54871121D01*
X101394966Y-54866710D01*
X101226906Y-54859729D01*
X101047089Y-54845281D01*
X100889969Y-54826247D01*
X100866571Y-54822525D01*
X100674075Y-54787326D01*
X100512461Y-54751843D01*
X100390136Y-54718321D01*
X100315504Y-54689008D01*
X100295785Y-54669962D01*
X100318996Y-54654835D01*
X100341301Y-54659829D01*
X100423467Y-54669444D01*
X100543452Y-54656583D01*
X100686648Y-54625907D01*
X100838448Y-54582074D01*
X100984243Y-54529744D01*
X101109426Y-54473577D01*
X101199387Y-54418230D01*
X101237828Y-54373878D01*
X101274342Y-54335477D01*
X101290126Y-54331954D01*
X101330304Y-54307779D01*
X101381752Y-54248544D01*
X101389792Y-54236914D01*
X101436653Y-54174254D01*
X101470013Y-54142751D01*
X101473298Y-54141874D01*
X101497243Y-54169958D01*
G37*
G36*
X106637857Y-56489345D02*
G01*
X106612158Y-56516600D01*
X106590292Y-56520060D01*
X106547984Y-56513275D01*
X106542726Y-56507597D01*
X106567522Y-56487150D01*
X106590292Y-56476882D01*
X106631124Y-56476223D01*
X106637857Y-56489345D01*
G37*
%TO.C,X1*%
X72266800Y-52583200D02*
X72266800Y-54333200D01*
X75996800Y-57083200D02*
X74766800Y-57833200D01*
X82266800Y-59583200D02*
X82266800Y-57833200D01*
X79766800Y-54333200D02*
X79766800Y-52583200D01*
X79766800Y-54333200D02*
X78536800Y-55083200D01*
X74766800Y-57833200D02*
X74766800Y-59583200D01*
X82266800Y-57833200D02*
X81076800Y-57083200D01*
X72266800Y-54333200D02*
X73456800Y-55083200D01*
X70916800Y-59893200D02*
X83616800Y-59893200D01*
X83616800Y-59893200D02*
X83616800Y-52273200D01*
X83616800Y-52273200D02*
X70916800Y-52273200D01*
X70916800Y-52273200D02*
X70916800Y-59893200D01*
%TD*%
M02*
