%TF.GenerationSoftware,KiCad,Pcbnew,(6.0.8-1)-1*%
%TF.CreationDate,2023-12-09T20:57:06-06:00*%
%TF.ProjectId,RIO to STEMMA Dual,52494f20-746f-4205-9354-454d4d412044,rev?*%
%TF.SameCoordinates,Original*%
%TF.FileFunction,Profile,NP*%
%FSLAX46Y46*%
G04 Gerber Fmt 4.6, Leading zero omitted, Abs format (unit mm)*
G04 Created by KiCad (PCBNEW (6.0.8-1)-1) date 2023-12-09 20:57:06*
%MOMM*%
%LPD*%
G01*
G04 APERTURE LIST*
%ADD10C,0.150000*%
%TA.AperFunction,Profile*%
%ADD11C,0.100000*%
%TD*%
G04 APERTURE END LIST*
D10*
X144474390Y-54028780D02*
X144474390Y-53028780D01*
X144236295Y-53028780D01*
X144093438Y-53076400D01*
X143998200Y-53171638D01*
X143950580Y-53266876D01*
X143902961Y-53457352D01*
X143902961Y-53600209D01*
X143950580Y-53790685D01*
X143998200Y-53885923D01*
X144093438Y-53981161D01*
X144236295Y-54028780D01*
X144474390Y-54028780D01*
X143093438Y-53981161D02*
X143188676Y-54028780D01*
X143379152Y-54028780D01*
X143474390Y-53981161D01*
X143522009Y-53885923D01*
X143522009Y-53504971D01*
X143474390Y-53409733D01*
X143379152Y-53362114D01*
X143188676Y-53362114D01*
X143093438Y-53409733D01*
X143045819Y-53504971D01*
X143045819Y-53600209D01*
X143522009Y-53695447D01*
X142664866Y-53981161D02*
X142569628Y-54028780D01*
X142379152Y-54028780D01*
X142283914Y-53981161D01*
X142236295Y-53885923D01*
X142236295Y-53838304D01*
X142283914Y-53743066D01*
X142379152Y-53695447D01*
X142522009Y-53695447D01*
X142617247Y-53647828D01*
X142664866Y-53552590D01*
X142664866Y-53504971D01*
X142617247Y-53409733D01*
X142522009Y-53362114D01*
X142379152Y-53362114D01*
X142283914Y-53409733D01*
X141807723Y-54028780D02*
X141807723Y-53362114D01*
X141807723Y-53028780D02*
X141855342Y-53076400D01*
X141807723Y-53124019D01*
X141760104Y-53076400D01*
X141807723Y-53028780D01*
X141807723Y-53124019D01*
X140902961Y-53362114D02*
X140902961Y-54171638D01*
X140950580Y-54266876D01*
X140998200Y-54314495D01*
X141093438Y-54362114D01*
X141236295Y-54362114D01*
X141331533Y-54314495D01*
X140902961Y-53981161D02*
X140998200Y-54028780D01*
X141188676Y-54028780D01*
X141283914Y-53981161D01*
X141331533Y-53933542D01*
X141379152Y-53838304D01*
X141379152Y-53552590D01*
X141331533Y-53457352D01*
X141283914Y-53409733D01*
X141188676Y-53362114D01*
X140998200Y-53362114D01*
X140902961Y-53409733D01*
X140426771Y-53362114D02*
X140426771Y-54028780D01*
X140426771Y-53457352D02*
X140379152Y-53409733D01*
X140283914Y-53362114D01*
X140141057Y-53362114D01*
X140045819Y-53409733D01*
X139998200Y-53504971D01*
X139998200Y-54028780D01*
X139141057Y-53981161D02*
X139236295Y-54028780D01*
X139426771Y-54028780D01*
X139522009Y-53981161D01*
X139569628Y-53885923D01*
X139569628Y-53504971D01*
X139522009Y-53409733D01*
X139426771Y-53362114D01*
X139236295Y-53362114D01*
X139141057Y-53409733D01*
X139093438Y-53504971D01*
X139093438Y-53600209D01*
X139569628Y-53695447D01*
X138236295Y-54028780D02*
X138236295Y-53028780D01*
X138236295Y-53981161D02*
X138331533Y-54028780D01*
X138522009Y-54028780D01*
X138617247Y-53981161D01*
X138664866Y-53933542D01*
X138712485Y-53838304D01*
X138712485Y-53552590D01*
X138664866Y-53457352D01*
X138617247Y-53409733D01*
X138522009Y-53362114D01*
X138331533Y-53362114D01*
X138236295Y-53409733D01*
X136998200Y-54028780D02*
X136998200Y-53362114D01*
X136998200Y-53028780D02*
X137045819Y-53076400D01*
X136998200Y-53124019D01*
X136950580Y-53076400D01*
X136998200Y-53028780D01*
X136998200Y-53124019D01*
X136522009Y-53362114D02*
X136522009Y-54028780D01*
X136522009Y-53457352D02*
X136474390Y-53409733D01*
X136379152Y-53362114D01*
X136236295Y-53362114D01*
X136141057Y-53409733D01*
X136093438Y-53504971D01*
X136093438Y-54028780D01*
X134902961Y-53124019D02*
X134855342Y-53076400D01*
X134760104Y-53028780D01*
X134522009Y-53028780D01*
X134426771Y-53076400D01*
X134379152Y-53124019D01*
X134331533Y-53219257D01*
X134331533Y-53314495D01*
X134379152Y-53457352D01*
X134950580Y-54028780D01*
X134331533Y-54028780D01*
X133712485Y-53028780D02*
X133617247Y-53028780D01*
X133522009Y-53076400D01*
X133474390Y-53124019D01*
X133426771Y-53219257D01*
X133379152Y-53409733D01*
X133379152Y-53647828D01*
X133426771Y-53838304D01*
X133474390Y-53933542D01*
X133522009Y-53981161D01*
X133617247Y-54028780D01*
X133712485Y-54028780D01*
X133807723Y-53981161D01*
X133855342Y-53933542D01*
X133902961Y-53838304D01*
X133950580Y-53647828D01*
X133950580Y-53409733D01*
X133902961Y-53219257D01*
X133855342Y-53124019D01*
X133807723Y-53076400D01*
X133712485Y-53028780D01*
X132998200Y-53124019D02*
X132950580Y-53076400D01*
X132855342Y-53028780D01*
X132617247Y-53028780D01*
X132522009Y-53076400D01*
X132474390Y-53124019D01*
X132426771Y-53219257D01*
X132426771Y-53314495D01*
X132474390Y-53457352D01*
X133045819Y-54028780D01*
X132426771Y-54028780D01*
X132093438Y-53028780D02*
X131474390Y-53028780D01*
X131807723Y-53409733D01*
X131664866Y-53409733D01*
X131569628Y-53457352D01*
X131522009Y-53504971D01*
X131474390Y-53600209D01*
X131474390Y-53838304D01*
X131522009Y-53933542D01*
X131569628Y-53981161D01*
X131664866Y-54028780D01*
X131950580Y-54028780D01*
X132045819Y-53981161D01*
X132093438Y-53933542D01*
X146783914Y-55638780D02*
X146783914Y-54638780D01*
X146402961Y-54638780D01*
X146307723Y-54686400D01*
X146260104Y-54734019D01*
X146212485Y-54829257D01*
X146212485Y-54972114D01*
X146260104Y-55067352D01*
X146307723Y-55114971D01*
X146402961Y-55162590D01*
X146783914Y-55162590D01*
X145212485Y-55543542D02*
X145260104Y-55591161D01*
X145402961Y-55638780D01*
X145498200Y-55638780D01*
X145641057Y-55591161D01*
X145736295Y-55495923D01*
X145783914Y-55400685D01*
X145831533Y-55210209D01*
X145831533Y-55067352D01*
X145783914Y-54876876D01*
X145736295Y-54781638D01*
X145641057Y-54686400D01*
X145498200Y-54638780D01*
X145402961Y-54638780D01*
X145260104Y-54686400D01*
X145212485Y-54734019D01*
X144450580Y-55114971D02*
X144307723Y-55162590D01*
X144260104Y-55210209D01*
X144212485Y-55305447D01*
X144212485Y-55448304D01*
X144260104Y-55543542D01*
X144307723Y-55591161D01*
X144402961Y-55638780D01*
X144783914Y-55638780D01*
X144783914Y-54638780D01*
X144450580Y-54638780D01*
X144355342Y-54686400D01*
X144307723Y-54734019D01*
X144260104Y-54829257D01*
X144260104Y-54924495D01*
X144307723Y-55019733D01*
X144355342Y-55067352D01*
X144450580Y-55114971D01*
X144783914Y-55114971D01*
X143164866Y-54972114D02*
X142783914Y-54972114D01*
X143022009Y-55638780D02*
X143022009Y-54781638D01*
X142974390Y-54686400D01*
X142879152Y-54638780D01*
X142783914Y-54638780D01*
X142022009Y-55638780D02*
X142022009Y-55114971D01*
X142069628Y-55019733D01*
X142164866Y-54972114D01*
X142355342Y-54972114D01*
X142450580Y-55019733D01*
X142022009Y-55591161D02*
X142117247Y-55638780D01*
X142355342Y-55638780D01*
X142450580Y-55591161D01*
X142498200Y-55495923D01*
X142498200Y-55400685D01*
X142450580Y-55305447D01*
X142355342Y-55257828D01*
X142117247Y-55257828D01*
X142022009Y-55210209D01*
X141545819Y-55638780D02*
X141545819Y-54638780D01*
X141545819Y-55019733D02*
X141450580Y-54972114D01*
X141260104Y-54972114D01*
X141164866Y-55019733D01*
X141117247Y-55067352D01*
X141069628Y-55162590D01*
X141069628Y-55448304D01*
X141117247Y-55543542D01*
X141164866Y-55591161D01*
X141260104Y-55638780D01*
X141450580Y-55638780D01*
X141545819Y-55591161D01*
X140641057Y-55638780D02*
X140641057Y-54972114D01*
X140641057Y-55162590D02*
X140593438Y-55067352D01*
X140545819Y-55019733D01*
X140450580Y-54972114D01*
X140355342Y-54972114D01*
X140022009Y-55638780D02*
X140022009Y-54972114D01*
X140022009Y-54638780D02*
X140069628Y-54686400D01*
X140022009Y-54734019D01*
X139974390Y-54686400D01*
X140022009Y-54638780D01*
X140022009Y-54734019D01*
X139117247Y-55591161D02*
X139212485Y-55638780D01*
X139402961Y-55638780D01*
X139498200Y-55591161D01*
X139545819Y-55543542D01*
X139593438Y-55448304D01*
X139593438Y-55162590D01*
X139545819Y-55067352D01*
X139498200Y-55019733D01*
X139402961Y-54972114D01*
X139212485Y-54972114D01*
X139117247Y-55019733D01*
X138260104Y-55638780D02*
X138260104Y-55114971D01*
X138307723Y-55019733D01*
X138402961Y-54972114D01*
X138593438Y-54972114D01*
X138688676Y-55019733D01*
X138260104Y-55591161D02*
X138355342Y-55638780D01*
X138593438Y-55638780D01*
X138688676Y-55591161D01*
X138736295Y-55495923D01*
X138736295Y-55400685D01*
X138688676Y-55305447D01*
X138593438Y-55257828D01*
X138355342Y-55257828D01*
X138260104Y-55210209D01*
X137926771Y-54972114D02*
X137545819Y-54972114D01*
X137783914Y-54638780D02*
X137783914Y-55495923D01*
X137736295Y-55591161D01*
X137641057Y-55638780D01*
X137545819Y-55638780D01*
X136831533Y-55591161D02*
X136926771Y-55638780D01*
X137117247Y-55638780D01*
X137212485Y-55591161D01*
X137260104Y-55495923D01*
X137260104Y-55114971D01*
X137212485Y-55019733D01*
X137117247Y-54972114D01*
X136926771Y-54972114D01*
X136831533Y-55019733D01*
X136783914Y-55114971D01*
X136783914Y-55210209D01*
X137260104Y-55305447D01*
X135926771Y-55638780D02*
X135926771Y-54638780D01*
X135926771Y-55591161D02*
X136022009Y-55638780D01*
X136212485Y-55638780D01*
X136307723Y-55591161D01*
X136355342Y-55543542D01*
X136402961Y-55448304D01*
X136402961Y-55162590D01*
X136355342Y-55067352D01*
X136307723Y-55019733D01*
X136212485Y-54972114D01*
X136022009Y-54972114D01*
X135926771Y-55019733D01*
X134688676Y-55638780D02*
X134688676Y-54972114D01*
X134688676Y-54638780D02*
X134736295Y-54686400D01*
X134688676Y-54734019D01*
X134641057Y-54686400D01*
X134688676Y-54638780D01*
X134688676Y-54734019D01*
X134212485Y-54972114D02*
X134212485Y-55638780D01*
X134212485Y-55067352D02*
X134164866Y-55019733D01*
X134069628Y-54972114D01*
X133926771Y-54972114D01*
X133831533Y-55019733D01*
X133783914Y-55114971D01*
X133783914Y-55638780D01*
X132593438Y-54734019D02*
X132545819Y-54686400D01*
X132450580Y-54638780D01*
X132212485Y-54638780D01*
X132117247Y-54686400D01*
X132069628Y-54734019D01*
X132022009Y-54829257D01*
X132022009Y-54924495D01*
X132069628Y-55067352D01*
X132641057Y-55638780D01*
X132022009Y-55638780D01*
X131402961Y-54638780D02*
X131307723Y-54638780D01*
X131212485Y-54686400D01*
X131164866Y-54734019D01*
X131117247Y-54829257D01*
X131069628Y-55019733D01*
X131069628Y-55257828D01*
X131117247Y-55448304D01*
X131164866Y-55543542D01*
X131212485Y-55591161D01*
X131307723Y-55638780D01*
X131402961Y-55638780D01*
X131498200Y-55591161D01*
X131545819Y-55543542D01*
X131593438Y-55448304D01*
X131641057Y-55257828D01*
X131641057Y-55019733D01*
X131593438Y-54829257D01*
X131545819Y-54734019D01*
X131498200Y-54686400D01*
X131402961Y-54638780D01*
X130688676Y-54734019D02*
X130641057Y-54686400D01*
X130545819Y-54638780D01*
X130307723Y-54638780D01*
X130212485Y-54686400D01*
X130164866Y-54734019D01*
X130117247Y-54829257D01*
X130117247Y-54924495D01*
X130164866Y-55067352D01*
X130736295Y-55638780D01*
X130117247Y-55638780D01*
X129260104Y-54972114D02*
X129260104Y-55638780D01*
X129498200Y-54591161D02*
X129736295Y-55305447D01*
X129117247Y-55305447D01*
D11*
X95148400Y-66802000D02*
X84124800Y-66802000D01*
X84124800Y-61696600D02*
X70253200Y-61696600D01*
X84124800Y-66802000D02*
X84124800Y-61696600D01*
X70253200Y-61696600D02*
X70253200Y-50302000D01*
X70253200Y-50302000D02*
X168481500Y-50302000D01*
X95148400Y-58302000D02*
X95148400Y-66802000D01*
X168481500Y-58302000D02*
X95148400Y-58302000D01*
X168481500Y-50302000D02*
X168481500Y-58302000D01*
M02*
